<svg width="80" height="16" viewBox="0 0 80 16" fill="none" xmlns="http://www.w3.org/2000/svg">
<path d="M5.71369 6.50397L8.27364 6.84046L10.1458 14.9558H6.60935L5.13639 8.72908L3.53642 14.9558H0L3.64858 0.806766H7.18501L5.71205 6.50397H5.71369ZM14.0038 6.16748H15.9881V9.12825H14.0038V15.4341H10.4823V2.31107L9.66578 0.567596H14.0038V6.16913V6.16748Z" fill="#121212"/>
<path d="M22.7575 2.30939C22.901 2.50237 22.9818 2.67722 22.9488 2.91804L21.2037 14.7462L17.9873 15.0349L19.7159 3.68833H16.5473L16.2273 0.806739H21.2367C21.4923 0.806739 21.6853 0.902408 21.8288 1.09539L22.7575 2.31104V2.30939ZM27.4304 0.565921V15.4341H24.3888V12.1698H22.0037L22.4045 9.28822H24.3888V6.80744H22.7723L23.2045 3.92585H24.3888V2.22857L23.5723 0.56427H27.4287L27.4304 0.565921ZM28.1512 0.565921H31.1928V15.4341H28.1512V0.565921Z" fill="#121212"/>
<path d="M35.831 7.46395H32.3259L34.7589 3.44589H32.7267V0.805118H41.8169V3.44589H38.2639L37.9275 4.0067L40.0074 4.24752L42.056 7.46395H38.391L37.111 5.3675L35.831 7.46395ZM37.0631 13.2733H47.1941V15.4341H35.2702C35.0294 15.4341 34.838 15.3533 34.678 15.1784L33.7824 14.2333C33.6224 14.0568 33.5416 13.882 33.5416 13.6411V10.7117H43.4317V10.2466H33.5416V8.08579H46.9533V12.7917H37.0631V13.2717V13.2733ZM43.4333 3.8467V2.31107L42.6169 0.567596H46.9549V7.6091H43.4333V6.5683H42.0577L40.3291 3.8467H43.4333Z" fill="#121212"/>
<path d="M57.851 4.58236V11.1604C57.851 13.689 56.1059 15.1141 53.3216 15.1141C50.5374 15.1141 48.7922 13.689 48.7922 11.1604V4.58236C48.7922 2.05375 50.5374 0.630276 53.3216 0.630276C56.1059 0.630276 57.851 2.05375 57.851 4.58236ZM54.3311 4.58236C54.3311 3.99021 53.8989 3.59104 53.3233 3.59104C52.7476 3.59104 52.3155 3.99021 52.3155 4.58236V11.1604C52.3155 11.7525 52.7476 12.1533 53.3233 12.1533C53.8989 12.1533 54.3311 11.7525 54.3311 11.1604V4.58236ZM63.0369 15.4341H59.5153V2.31107L58.6988 0.567596H63.0369V15.4357V15.4341Z" fill="#121212"/>
<path d="M69.7257 6.50397L72.2856 6.84046L74.1577 14.9558H70.6213L69.1483 8.72908L67.5484 14.9558H64.012L67.6605 0.806766H71.197L69.724 6.50397H69.7257ZM78.0158 6.16748H80.0001V9.12825H78.0158V15.4341H74.4942V2.31107L73.6777 0.567596H78.0158V6.16913V6.16748Z" fill="#121212"/>
</svg>
