<svg width="31" height="22" viewBox="0 0 31 22" fill="none" xmlns="http://www.w3.org/2000/svg">
<path d="M0.275101 15.223C0.776515 16.9898 1.91652 18.4633 3.50117 19.5773L12.1269 0.920898C4.00022 3.31917 -1.293 9.68144 0.275101 15.223Z" fill="url(#paint0_linear_23_5048)"/>
<path d="M23.5128 0.72703C21.2659 0.0364044 18.6358 -0.183554 15.8709 0.147567L13.2764 7.9313C18.9196 7.08457 22.167 2.91717 23.5128 0.729398V0.72703Z" fill="url(#paint1_linear_23_5048)"/>
<path d="M11.9732 14.3574L9.85635 21.8408C12.406 22.1459 15.2465 21.933 18.1202 21.1194C18.5625 20.9941 18.9977 20.8569 19.4234 20.7079C16.7295 13.7567 11.9732 14.3551 11.9732 14.3551V14.3574Z" fill="url(#paint2_linear_23_5048)"/>
<path d="M30.218 6.74399C29.5841 4.50655 27.9262 2.74215 25.6367 1.57849C20.3931 8.96961 15.45 11.3111 15.45 11.3111C21.3581 11.4294 24.7332 15.0126 26.1144 16.9165C29.5013 13.9814 31.1972 10.2042 30.218 6.74399Z" fill="url(#paint3_linear_23_5048)"/>
<path d="M15.4523 11.311C15.4523 11.311 20.3931 8.96954 25.639 1.57843C24.9792 1.24257 24.2696 0.958753 23.5151 0.726968C22.1717 2.9171 18.922 7.08214 13.2787 7.92887L15.8733 0.145142C14.7262 0.282321 13.5555 0.514106 12.38 0.847593C12.2972 0.871245 12.2144 0.894896 12.1293 0.920913L3.50354 19.5773C5.19226 20.7646 7.38713 21.5451 9.85635 21.8407L11.9732 14.3574C11.9732 14.3574 16.7295 13.759 19.4234 20.7102C22.0369 19.802 24.3169 18.4798 26.1168 16.9188C24.7355 15.0172 21.3605 11.4317 15.4523 11.3134V11.311Z" fill="white"/>
<defs>
<linearGradient id="paint0_linear_23_5048" x1="7.27833" y1="14.6743" x2="5.68422" y2="5.10486" gradientUnits="userSpaceOnUse">
<stop stop-color="#362979"/>
<stop offset="0.28" stop-color="#22469D"/>
<stop offset="0.53" stop-color="#6153A3"/>
<stop offset="0.75" stop-color="#40337A"/>
<stop offset="1" stop-color="#232162"/>
</linearGradient>
<linearGradient id="paint1_linear_23_5048" x1="13.2764" y1="3.96257" x2="23.5128" y2="3.96257" gradientUnits="userSpaceOnUse">
<stop stop-color="#6A1143"/>
<stop offset="0.08" stop-color="#821544"/>
<stop offset="0.19" stop-color="#9C1945"/>
<stop offset="0.3" stop-color="#AF1C47"/>
<stop offset="0.41" stop-color="#BB1E47"/>
<stop offset="0.53" stop-color="#BF1F48"/>
<stop offset="1" stop-color="#7D1E5E"/>
</linearGradient>
<linearGradient id="paint2_linear_23_5048" x1="9.85399" y1="18.1582" x2="19.421" y2="18.1582" gradientUnits="userSpaceOnUse">
<stop stop-color="#6A1143"/>
<stop offset="0.08" stop-color="#821544"/>
<stop offset="0.19" stop-color="#9C1945"/>
<stop offset="0.3" stop-color="#AF1C47"/>
<stop offset="0.41" stop-color="#BB1E47"/>
<stop offset="0.53" stop-color="#BF1F48"/>
<stop offset="1" stop-color="#7D1E5E"/>
</linearGradient>
<linearGradient id="paint3_linear_23_5048" x1="15.4523" y1="9.24869" x2="30.4947" y2="9.24869" gradientUnits="userSpaceOnUse">
<stop stop-color="#6A1143"/>
<stop offset="0.08" stop-color="#821544"/>
<stop offset="0.19" stop-color="#9C1945"/>
<stop offset="0.3" stop-color="#AF1C47"/>
<stop offset="0.41" stop-color="#BB1E47"/>
<stop offset="0.53" stop-color="#BF1F48"/>
<stop offset="1" stop-color="#7D1E5E"/>
</linearGradient>
</defs>
</svg>
