<svg width="25" height="24" viewBox="0 0 25 24" fill="none" xmlns="http://www.w3.org/2000/svg">
<path fill-rule="evenodd" clip-rule="evenodd" d="M12.125 21.5C17.6478 21.5 22.125 17.0228 22.125 11.5C22.125 5.97715 17.6478 1.5 12.125 1.5C6.60215 1.5 2.125 5.97715 2.125 11.5C2.125 17.0228 6.60215 21.5 12.125 21.5ZM15.125 9.5C15.125 11.1569 13.7819 12.5 12.125 12.5C10.4681 12.5 9.125 11.1569 9.125 9.5C9.125 7.84315 10.4681 6.5 12.125 6.5C13.7819 6.5 15.125 7.84315 15.125 9.5ZM12.1252 19.5C9.88681 19.5 7.86314 18.5807 6.41113 17.0991C7.74287 15.505 9.72991 14.5 12.1252 14.5C14.5205 14.5 16.5075 15.505 17.8393 17.0991C16.3873 18.5807 14.3636 19.5 12.1252 19.5Z" fill="#BBBBBB"/>
</svg>
