<svg width="25" height="24" viewBox="0 0 25 24" fill="none" xmlns="http://www.w3.org/2000/svg">
<path fill-rule="evenodd" clip-rule="evenodd" d="M12.375 22C17.8978 22 22.375 17.5228 22.375 12C22.375 6.47715 17.8978 2 12.375 2C6.85215 2 2.375 6.47715 2.375 12C2.375 17.5228 6.85215 22 12.375 22Z" fill="#BBBBBB"/>
<path d="M9.6748 8.92969H12.6826C13.2035 8.92969 13.6608 9.03385 14.0547 9.24219C14.4518 9.44727 14.7578 9.73698 14.9727 10.1113C15.1908 10.4857 15.2998 10.9186 15.2998 11.4102C15.2998 11.9082 15.1891 12.3428 14.9678 12.7139C14.7464 13.085 14.4339 13.3714 14.0303 13.5732C13.6266 13.7718 13.1579 13.8711 12.624 13.8711H11.5303V16H9.6748V8.92969ZM12.2529 12.4258C12.6012 12.4258 12.8714 12.3363 13.0635 12.1572C13.2588 11.9749 13.3564 11.7259 13.3564 11.4102C13.3564 11.1009 13.2588 10.8584 13.0635 10.6826C12.8714 10.5036 12.6012 10.4141 12.2529 10.4141H11.5303V12.4258H12.2529Z" fill="white"/>
</svg>
