<svg width="24" height="24" viewBox="0 0 24 24" fill="none" xmlns="http://www.w3.org/2000/svg">
<path fill-rule="evenodd" clip-rule="evenodd" d="M12 22C17.5228 22 22 17.5228 22 12C22 6.47715 17.5228 2 12 2C6.47715 2 2 6.47715 2 12C2 17.5228 6.47715 22 12 22Z" fill="#121212"/>
<path d="M9.2998 8.92969H12.3076C12.8285 8.92969 13.2858 9.03385 13.6797 9.24219C14.0768 9.44727 14.3828 9.73698 14.5977 10.1113C14.8158 10.4857 14.9248 10.9186 14.9248 11.4102C14.9248 11.9082 14.8141 12.3428 14.5928 12.7139C14.3714 13.085 14.0589 13.3714 13.6553 13.5732C13.2516 13.7718 12.7829 13.8711 12.249 13.8711H11.1553V16H9.2998V8.92969ZM11.8779 12.4258C12.2262 12.4258 12.4964 12.3363 12.6885 12.1572C12.8838 11.9749 12.9814 11.7259 12.9814 11.4102C12.9814 11.1009 12.8838 10.8584 12.6885 10.6826C12.4964 10.5036 12.2262 10.4141 11.8779 10.4141H11.1553V12.4258H11.8779Z" fill="white"/>
</svg>
