<svg width="24" height="24" viewBox="0 0 24 24" fill="none" xmlns="http://www.w3.org/2000/svg">
<path fill-rule="evenodd" clip-rule="evenodd" d="M12 21.5C17.5228 21.5 22 17.0228 22 11.5C22 5.97715 17.5228 1.5 12 1.5C6.47715 1.5 2 5.97715 2 11.5C2 17.0228 6.47715 21.5 12 21.5ZM15 9.5C15 11.1569 13.6569 12.5 12 12.5C10.3431 12.5 9 11.1569 9 9.5C9 7.84315 10.3431 6.5 12 6.5C13.6569 6.5 15 7.84315 15 9.5ZM12.0002 19.5C9.76181 19.5 7.73814 18.5807 6.28613 17.0991C7.61787 15.505 9.60491 14.5 12.0002 14.5C14.3955 14.5 16.3825 15.505 17.7143 17.0991C16.2623 18.5807 14.2386 19.5 12.0002 19.5Z" fill="#121212"/>
</svg>
