<svg width="58" height="63" viewBox="0 0 58 63" fill="none" xmlns="http://www.w3.org/2000/svg">
<g id="Frame 3466342">
<path id="Exclude" fill-rule="evenodd" clip-rule="evenodd" d="M23.3975 7.01538C23.3975 3.14939 20.2635 0.0153809 16.3975 0.0153809C12.5315 0.0153809 9.39746 3.14939 9.39746 7.01538L9.39746 32.5931C4.06899 35.1897 0.397461 40.6584 0.397461 46.9846C0.397461 55.8212 7.5609 62.9846 16.3975 62.9846C25.234 62.9846 32.3975 55.8212 32.3975 46.9846C32.3975 40.6584 28.7259 35.1897 23.3975 32.5931L23.3975 7.01538Z" fill="#F55C2D"/>
<path id="Ellipse 328" d="M28.1148 45.8087C28.3539 47.7575 28.0349 49.8069 27.0778 51.705C26.1119 53.6205 24.6359 55.1052 22.9067 56.0712" stroke="#F4F4F4" stroke-width="3" stroke-linecap="round"/>
<g id="Group 4759">
<circle id="Ellipse 9" cx="44.9829" cy="31.4998" r="7.16821" fill="#FFC04D"/>
<rect id="Rectangle 5546" x="43.853" y="18.8972" width="2.29383" height="3.44074" rx="1.14691" fill="#FFC04D"/>
<rect id="Rectangle 5547" x="43.853" y="40.6616" width="2.29383" height="3.44074" rx="1.14691" fill="#FFC04D"/>
<rect id="Rectangle 5548" x="53.1002" y="21.7775" width="2.29383" height="3.44074" rx="1.14691" transform="rotate(45 53.1002 21.7775)" fill="#FFC04D"/>
<rect id="Rectangle 5549" x="37.7107" y="37.1672" width="2.29383" height="3.44074" rx="1.14691" transform="rotate(45 37.7107 37.1672)" fill="#FFC04D"/>
<rect id="Rectangle 5550" x="57.6025" y="30.3528" width="2.29383" height="3.44074" rx="1.14691" transform="rotate(90 57.6025 30.3528)" fill="#FFC04D"/>
<rect id="Rectangle 5551" x="35.8381" y="30.3529" width="2.29383" height="3.44074" rx="1.14691" transform="rotate(90 35.8381 30.3529)" fill="#FFC04D"/>
<rect id="Rectangle 5552" x="54.7223" y="39.6002" width="2.29383" height="3.44074" rx="1.14691" transform="rotate(135 54.7223 39.6002)" fill="#FFC04D"/>
<rect id="Rectangle 5553" x="39.3324" y="24.2104" width="2.29383" height="3.44074" rx="1.14691" transform="rotate(135 39.3324 24.2104)" fill="#FFC04D"/>
</g>
<circle id="Ellipse 343" cx="17.0558" cy="58.456" r="2" transform="rotate(10.7205 17.0558 58.456)" fill="#F4F4F4"/>
</g>
</svg>
