<svg width="54" height="55" viewBox="0 0 54 55" fill="none" xmlns="http://www.w3.org/2000/svg">
<g id="Group 4768">
<g id="Group 4758">
<path id="Vector 200" d="M13.6286 25.0804L6.37206 31.1676C5.95723 31.5155 5.8947 32.1304 6.23099 32.5548L7.06948 33.6128C7.37578 33.9994 7.91812 34.1048 8.34698 33.8613L13.6379 30.8571C13.9721 30.6674 14.3854 30.6859 14.7012 30.9047L19.8606 34.4799C20.1618 34.6885 20.5529 34.7158 20.8801 34.551L27.1175 31.4088C27.4459 31.2433 27.8385 31.2715 28.14 31.482L32.3692 34.4358C32.7009 34.6674 33.1394 34.6764 33.4803 34.4586L39.6471 30.5179C39.9614 30.317 40.3604 30.3073 40.6839 30.4932C43.1351 31.9023 47.2375 34.2404 47.46 34.2845C47.6868 34.3294 49.7927 30.9716 50.9808 29.0203C51.104 28.8181 51.15 28.5795 51.1126 28.3457L48.814 13.9908C48.7895 13.8374 48.7295 13.6919 48.639 13.5658L44.4817 7.77392C44.3937 7.65135 44.2791 7.55027 44.1465 7.47827L39.4949 4.95207C38.7254 4.5342 37.8285 5.23696 38.0502 6.08403L40.7079 16.2388C40.7404 16.3631 40.7487 16.4925 40.7322 16.62L39.8097 23.7644C39.803 23.8166 39.7921 23.8682 39.7773 23.9186L38.7094 27.5481C38.473 28.3514 37.4129 28.5258 36.9317 27.8405L31.7583 20.4735C31.28 19.7925 30.2277 19.9595 29.9838 20.7552L27.4515 29.0161C27.3518 29.3415 27.0935 29.5938 26.7658 29.6858L24.1256 30.4274C23.8549 30.5034 23.5647 30.462 23.3261 30.3132L14.8003 24.998C14.4331 24.769 13.9602 24.8023 13.6286 25.0804Z" fill="#57C5FF"/>
<path id="Vector 197" d="M2.8291 29.5972C4.12146 29.5972 6.96323 30.3478 11.0763 26.2393C17.4963 19.8266 18.1325 29.5972 22.7613 29.5972C27.4693 29.5972 32.6612 22.9241 27.3471 15.2677C27.3068 15.2096 27.334 15.1272 27.4038 15.116C29.4172 14.7923 34.297 17.0784 35.4399 27.0397C35.5437 27.9444 36.6376 28.2839 37.0965 27.4974C39.7724 22.9108 42.4641 13.7294 35.1124 2.78878C35.0708 2.72682 35.1028 2.64083 35.1771 2.63331C39.6546 2.17969 51.0264 5.6155 51.0264 29.5972" stroke="#57C5FF" stroke-width="4" stroke-linecap="round"/>
<path id="Vector 198" d="M2.8291 29.6191C2.8291 29.6191 5.01921 34.0513 8.38241 34.0512C11.7456 34.0512 14.9698 28.6028 14.9698 28.6028C14.9698 28.6028 17.951 34.1424 21.2104 34.0512C24.37 33.9629 27.1044 28.6028 27.1044 28.6028C27.1044 28.6028 29.7582 33.9055 32.8828 34.0512C36.1737 34.2047 39.239 28.6028 39.239 28.6028C39.239 28.6028 42.6032 34.0512 46.0216 34.0512C49.44 34.0512 51.0269 29.6191 51.0269 29.6191" stroke="#57C5FF" stroke-width="4" stroke-linejoin="round"/>
</g>
<path id="Vector 199" d="M2 41.339C2 41.339 4.21918 43.6094 7.62701 43.6094C11.0348 43.6094 14.3018 40.8184 14.3018 40.8184C14.3018 40.8184 17.3226 43.6561 20.6253 43.6094C23.8268 43.5641 26.5975 40.8184 26.5975 40.8184C26.5975 40.8184 29.2865 43.5347 32.4526 43.6094C35.7872 43.688 38.8932 40.8184 38.8932 40.8184C38.8932 40.8184 42.3161 43.6094 45.7799 43.6094C49.2437 43.6094 52 40.8184 52 40.8184" stroke="#57C5FF" stroke-width="4" stroke-linecap="round" stroke-linejoin="round"/>
<path id="Vector 200_2" d="M2 50.1316C2 50.1316 4.21918 52.402 7.62701 52.402C11.0348 52.402 14.3018 49.611 14.3018 49.611C14.3018 49.611 17.3226 52.4487 20.6253 52.402C23.8268 52.3567 26.5975 49.611 26.5975 49.611C26.5975 49.611 29.2865 52.3273 32.4526 52.402C35.7872 52.4806 38.8932 49.611 38.8932 49.611C38.8932 49.611 42.3161 52.402 45.7799 52.402C49.2437 52.402 52 49.611 52 49.611" stroke="#57C5FF" stroke-width="4" stroke-linecap="round" stroke-linejoin="round"/>
</g>
</svg>
