<svg width="70" height="71" viewBox="0 0 70 71" fill="none" xmlns="http://www.w3.org/2000/svg">
<g id="Frame 21">
<g id="Group 3485">
<path id="Union" fill-rule="evenodd" clip-rule="evenodd" d="M50.8088 16.62C48.6354 9.57618 41.6444 4.4209 33.3558 4.4209C23.3306 4.4209 15.2036 11.9628 15.2036 21.2662C15.2036 21.8628 15.237 22.4522 15.3022 23.0328C9.71983 25.4974 5.87207 30.6973 5.87207 36.7135C5.87207 45.1097 13.3662 51.9161 22.6107 51.9161C26.7093 51.9161 30.4638 50.5782 33.3738 48.357C36.4708 50.0911 40.1416 51.0949 44.0771 51.0949C55.1509 51.0949 64.1279 43.1479 64.1279 33.3449C64.1279 25.6323 58.5713 19.0687 50.8088 16.62Z" fill="#D9D9D9"/>
<g id="Group 3446">
<path id="Star 3" d="M40.3584 39.3791C40.9484 37.7787 43.212 37.7787 43.802 39.3791C44.1081 40.2093 44.963 40.7029 45.835 40.5528C47.516 40.2636 48.6478 42.2239 47.5568 43.5351C46.9909 44.2153 46.9909 45.2024 47.5568 45.8826C48.6478 47.1938 47.516 49.1541 45.835 48.8649C44.963 48.7148 44.1081 49.2084 43.802 50.0386C43.212 51.639 40.9484 51.639 40.3584 50.0386C40.0523 49.2084 39.1974 48.7148 38.3254 48.8649C36.6444 49.1541 35.5126 47.1938 36.6036 45.8826C37.1695 45.2024 37.1695 44.2153 36.6036 43.5351C35.5126 42.2239 36.6444 40.2636 38.3254 40.5528C39.1974 40.7029 40.0523 40.2093 40.3584 39.3791Z" fill="#5DC5FF"/>
<path id="Star 5" d="M48.4853 53.7937C49.0754 52.1932 51.3389 52.1932 51.929 53.7937C52.235 54.6239 53.0899 55.1174 53.9619 54.9674C55.643 54.6782 56.7747 56.6385 55.6838 57.9497C55.1178 58.6298 55.1178 59.617 55.6838 60.2972C56.7747 61.6083 55.643 63.5686 53.9619 63.2794C53.0899 63.1294 52.235 63.623 51.929 64.4532C51.3389 66.0536 49.0754 66.0536 48.4853 64.4532C48.1793 63.623 47.3244 63.1294 46.4524 63.2794C44.7713 63.5686 43.6396 61.6083 44.7305 60.2972C45.2965 59.617 45.2965 58.6298 44.7305 57.9497C43.6396 56.6385 44.7713 54.6782 46.4524 54.9674C47.3244 55.1174 48.1793 54.6239 48.4853 53.7937Z" fill="#5DC5FF"/>
<path id="Star 4" d="M25.3437 39.3791C25.9338 37.7787 28.1973 37.7787 28.7874 39.3791C29.0934 40.2093 29.9483 40.7029 30.8203 40.5528C32.5014 40.2636 33.6331 42.2239 32.5422 43.5351C31.9762 44.2153 31.9762 45.2024 32.5422 45.8826C33.6331 47.1938 32.5014 49.1541 30.8203 48.8649C29.9483 48.7148 29.0934 49.2084 28.7874 50.0386C28.1973 51.639 25.9338 51.639 25.3437 50.0386C25.0377 49.2084 24.1828 48.7148 23.3108 48.8649C21.6297 49.1541 20.498 47.1938 21.5889 45.8826C22.1549 45.2024 22.1549 44.2153 21.5889 43.5351C20.498 42.2239 21.6297 40.2636 23.3108 40.5528C24.1828 40.7029 25.0377 40.2093 25.3437 39.3791Z" fill="#5DC5FF"/>
<path id="Star 6" d="M33.4707 53.7937C34.0607 52.1932 36.3243 52.1932 36.9143 53.7937C37.2204 54.6239 38.0753 55.1174 38.9473 54.9674C40.6283 54.6782 41.7601 56.6385 40.6691 57.9497C40.1032 58.6298 40.1032 59.617 40.6691 60.2972C41.7601 61.6083 40.6283 63.5686 38.9473 63.2794C38.0753 63.1294 37.2204 63.623 36.9143 64.4532C36.3243 66.0536 34.0607 66.0536 33.4707 64.4532C33.1646 63.623 32.3097 63.1294 31.4377 63.2794C29.7567 63.5686 28.6249 61.6083 29.7159 60.2972C30.2818 59.617 30.2818 58.6298 29.7159 57.9497C28.6249 56.6385 29.7567 54.6782 31.4377 54.9674C32.3097 55.1174 33.1646 54.6239 33.4707 53.7937Z" fill="#5DC5FF"/>
<path id="Star 7" d="M18.0713 53.7937C18.6613 52.1932 20.9249 52.1932 21.5149 53.7937C21.821 54.6239 22.6759 55.1174 23.5479 54.9674C25.2289 54.6782 26.3607 56.6385 25.2697 57.9497C24.7038 58.6298 24.7038 59.617 25.2697 60.2972C26.3607 61.6083 25.2289 63.5686 23.5479 63.2794C22.6759 63.1294 21.821 63.623 21.5149 64.4532C20.9249 66.0536 18.6613 66.0536 18.0713 64.4532C17.7652 63.623 16.9103 63.1294 16.0383 63.2794C14.3573 63.5686 13.2255 61.6083 14.3165 60.2972C14.8824 59.617 14.8824 58.6298 14.3165 57.9497C13.2255 56.6385 14.3573 54.6782 16.0383 54.9674C16.9103 55.1174 17.7652 54.6239 18.0713 53.7937Z" fill="#5DC5FF"/>
</g>
</g>
</g>
</svg>
