<svg width="68" height="69" viewBox="0 0 68 69" fill="none" xmlns="http://www.w3.org/2000/svg">
<g id="Group 4763">
<path id="Vector 201" d="M43.5 0.560791C61.557 24.1412 31.6091 43.031 2.54565 47.7436C27.6551 47.7436 45.4429 43.6467 53.7668 33.7154C64.5343 20.8687 60.2378 1.3588 43.5 0.560791Z" fill="#5DC5FF"/>
<path id="Vector 202" d="M37.1652 68.4393C46.1969 60.5686 31.9879 51.4316 19.3337 49.5444C32.0393 49.5444 44.404 53.4231 47.253 58.1395C50.0265 62.7311 42.9229 66.5886 37.1652 68.4393Z" fill="#5DC5FF"/>
<path id="Vector 203" d="M19.8001 11.9578C27.8154 26.3476 15.3716 38.8729 6.26514 42.4966C17.087 39.6532 26.3184 33.8615 28.6545 28.0257C31.2984 21.4211 26.317 11.9578 19.8001 11.9578Z" fill="#D3D3D3"/>
<path id="Vector 204" d="M48.3528 42.1147C58.0392 39.6911 63.1563 34.6698 65.3434 21.1619C70.5582 33.2553 62.2523 43.494 48.3528 42.1147Z" fill="#5DC5FF"/>
<path id="Vector 205" d="M33.64 47.5258C44.2074 45.8443 53.5222 46.9448 60.6318 59.0218C59.1351 45.2563 46.8379 40.2243 33.64 47.5258Z" fill="#D3D3D3"/>
</g>
</svg>
