<svg width="70" height="71" viewBox="0 0 70 71" fill="none" xmlns="http://www.w3.org/2000/svg">
<g id="Frame 21">
<g id="Group 3453">
<path id="Subtract" fill-rule="evenodd" clip-rule="evenodd" d="M50.8088 16.62C48.6354 9.57618 41.6444 4.4209 33.3558 4.4209C23.3306 4.4209 15.2036 11.9628 15.2036 21.2662C15.2036 21.8628 15.237 22.4522 15.3022 23.0328C9.71983 25.4974 5.87207 30.6973 5.87207 36.7135C5.87207 45.1097 13.3662 51.9161 22.6107 51.9161C26.7093 51.9161 30.4638 50.5782 33.3738 48.357C36.4708 50.0911 40.1416 51.0949 44.0771 51.0949C55.1509 51.0949 64.1279 43.1479 64.1279 33.3449C64.1279 25.6323 58.5713 19.0687 50.8088 16.62Z" fill="#D3D3D3"/>
<g id="Group 3454">
<rect id="Rectangle 5564" x="20.7712" y="38.4998" width="6" height="22" rx="3" transform="rotate(9 20.7712 38.4998)" fill="#5DC5FF"/>
<rect id="Rectangle 5565" x="28.9949" y="38.4998" width="6" height="22" rx="3" transform="rotate(9 28.9949 38.4998)" fill="#5DC5FF"/>
<rect id="Rectangle 5566" x="37.2185" y="38.4998" width="6" height="22" rx="3" transform="rotate(9 37.2185 38.4998)" fill="#5DC5FF"/>
<rect id="Rectangle 5567" x="45.4421" y="38.4998" width="6" height="22" rx="3" transform="rotate(9 45.4421 38.4998)" fill="#5DC5FF"/>
</g>
</g>
</g>
</svg>
