<svg width="60" height="63" viewBox="0 0 60 63" fill="none" xmlns="http://www.w3.org/2000/svg">
<g id="Group 4766">
<path id="Exclude" fill-rule="evenodd" clip-rule="evenodd" d="M23.6846 7.01538C23.6846 3.14939 20.5506 0.0153809 16.6846 0.0153809C12.8186 0.0153809 9.68457 3.14939 9.68457 7.01538L9.68457 32.5931C4.3561 35.1897 0.68457 40.6584 0.68457 46.9846C0.68457 55.8212 7.84801 62.9846 16.6846 62.9846C25.5211 62.9846 32.6846 55.8212 32.6846 46.9846C32.6846 40.6584 29.013 35.1897 23.6846 32.5931L23.6846 7.01538ZM28.6846 45.9998C28.6846 52.6272 23.312 57.9998 16.6846 57.9998C10.0572 57.9998 4.68457 52.6272 4.68457 45.9998H28.6846Z" fill="#4FC8FE"/>
<path id="Union" fill-rule="evenodd" clip-rule="evenodd" d="M46.0006 16.6669C47.9336 16.6669 49.5006 18.2339 49.5006 20.1669V25.4373L54.0649 22.8022C55.7389 21.8357 57.8795 22.4093 58.846 24.0833C59.8125 25.7573 59.2389 27.8979 57.5649 28.8644L52.508 31.7839L57.2912 35.1332C58.8746 36.2419 59.2594 38.4243 58.1507 40.0077C57.042 41.5911 54.8596 41.9759 53.2761 40.8672L49.5006 38.2236V42.8331C49.5006 44.7661 47.9336 46.3331 46.0006 46.3331C44.0676 46.3331 42.5006 44.7661 42.5006 42.8331V37.5616L37.9352 40.1975C36.2612 41.164 34.1206 40.5904 33.1541 38.9164C32.1876 37.2423 32.7611 35.1018 34.4352 34.1353L39.4922 31.2157L34.7089 27.8664C33.1255 26.7577 32.7406 24.5753 33.8494 22.9919C34.9581 21.4085 37.1405 21.0237 38.7239 22.1324L42.5006 24.7768V20.1669C42.5006 18.2339 44.0676 16.6669 46.0006 16.6669Z" fill="#4FC8FE"/>
</g>
</svg>
