<svg width="70" height="71" viewBox="0 0 70 71" fill="none" xmlns="http://www.w3.org/2000/svg">
<g id="TabIcon">
<g id="Group 3481">
<path id="Icon (Stroke)" fill-rule="evenodd" clip-rule="evenodd" d="M33.5339 16.1079C32.4885 16.1079 31.5146 16.7664 31.09 17.8271C30.3203 19.7498 28.1377 20.6845 26.2149 19.9148C24.2922 19.1452 23.3574 16.9625 24.1271 15.0398C25.6172 11.3175 29.228 8.60791 33.5339 8.60791C39.2319 8.60791 43.687 13.3202 43.687 18.9282C43.687 24.5362 39.2319 29.2485 33.5339 29.2485H10C7.92893 29.2485 6.25 27.5696 6.25 25.4985C6.25 23.4274 7.92893 21.7485 10 21.7485H33.5339C34.9087 21.7485 36.187 20.5775 36.187 18.9282C36.187 17.2789 34.9087 16.1079 33.5339 16.1079ZM54.4092 25.9633C53.1747 25.9633 52.1402 26.7075 51.7154 27.7289C50.92 29.6412 48.7251 30.5467 46.8128 29.7513C44.9006 28.956 43.9951 26.7611 44.7904 24.8488C46.3549 21.0873 50.0838 18.4633 54.4092 18.4633C60.1103 18.4633 64.8119 23.04 64.8119 28.7836C64.8119 34.5273 60.1103 39.1039 54.4092 39.1039H16.6527C14.5816 39.1039 12.9027 37.425 12.9027 35.3539C12.9027 33.2829 14.5816 31.6039 16.6527 31.6039H54.4092C56.0565 31.6039 57.3119 30.2973 57.3119 28.7836C57.3119 27.27 56.0565 25.9633 54.4092 25.9633ZM19.5554 45.2094C19.5554 43.1383 21.2343 41.4594 23.3054 41.4594H46.8393C52.5372 41.4594 56.9924 46.1716 56.9924 51.7797C56.9924 57.3877 52.5372 62.0999 46.8393 62.0999C42.5334 62.0999 38.9225 59.3904 37.4325 55.6681C36.6628 53.7453 37.5975 51.5627 39.5203 50.793C41.443 50.0233 43.6256 50.9581 44.3953 52.8808C44.8199 53.9415 45.7938 54.5999 46.8393 54.5999C48.214 54.5999 49.4924 53.429 49.4924 51.7797C49.4924 50.1304 48.214 48.9594 46.8393 48.9594H23.3054C21.2343 48.9594 19.5554 47.2804 19.5554 45.2094Z" fill="#E3B89D"/>
<ellipse id="Ellipse 13" cx="52.4454" cy="11.0998" rx="3.13865" ry="3.09979" fill="#B4A094"/>
<ellipse id="Ellipse 14" cx="19.6909" cy="58.3504" rx="4.70798" ry="4.64968" fill="#B4A094"/>
</g>
</g>
</svg>
