<svg width="59" height="56" viewBox="0 0 59 56" fill="none" xmlns="http://www.w3.org/2000/svg">
<g id="Group 4738">
<ellipse id="Ellipse 155" cx="29.0467" cy="15.4159" rx="29.0467" ry="14.9159" fill="#D3D3D3"/>
<path id="Vector 27" d="M24.3365 38.9672C7.5 37 4.44866 30.5934 3.92529 26.4065C7 29 16.0794 32.3719 25.5 33C34.9206 33.628 46 31 51.5 27.5C51.5 27.5 46.2449 41.5271 24.3365 38.9672Z" fill="#D3D3D3"/>
<g id="Vector 28">
<path d="M32.9716 49.1729C19.6259 49.958 15.9999 43 14.1305 40C14.9156 40.7851 23.5511 43.7851 32.9716 43C41.1079 42.322 46.3174 39.229 48.6726 37.3972C48.6726 37.3972 50.3724 48.1493 32.9716 49.1729Z" fill="#D3D3D3"/>
<path d="M36.8972 52.3131C34.8036 53.8832 31.5 58 20.4109 54.6682C12.8028 52.3823 13.0838 47.3411 14.1305 45.2477C15.4999 47 17.9999 50.3365 22.7663 51.5281C28.3837 52.9324 34.8037 52.3131 36.8972 52.3131Z" fill="#D3D3D3"/>
</g>
</g>
</svg>
