<svg width="70" height="71" viewBox="0 0 70 71" fill="none" xmlns="http://www.w3.org/2000/svg">
<g id="Group 4762">
<path id="Exclude" fill-rule="evenodd" clip-rule="evenodd" d="M45.0197 59.0633C57.7823 53.2616 63.4637 38.2968 57.7093 25.6385C51.955 12.9803 36.9441 7.42198 24.1815 13.2237C11.4189 19.0255 5.73756 33.9903 11.4919 46.6485C17.2462 59.3068 32.2571 64.8651 45.0197 59.0633ZM38.2475 44.1656C42.7144 42.135 44.7029 36.8973 42.6889 32.4669C40.6749 28.0365 35.421 26.0911 30.9541 28.1218C26.4872 30.1524 24.4988 35.3901 26.5128 39.8204C28.5268 44.2508 33.7806 46.1962 38.2475 44.1656Z" fill="#5DC5FF"/>
<path id="Subtract" fill-rule="evenodd" clip-rule="evenodd" d="M59.8917 34.945L8.64103 58.243C16.9837 64.8844 30.6099 66.3568 42.3014 61.042C53.9929 55.7271 60.1896 45.2434 59.8917 34.945ZM20.0323 15.1116L19.808 15.2136C19.8453 15.1965 19.8826 15.1794 19.9201 15.1624C19.9575 15.1454 19.9949 15.1285 20.0323 15.1116Z" fill="#5DC5FF"/>
<path id="Subtract_2" fill-rule="evenodd" clip-rule="evenodd" d="M9.2939 37.0267L60.5445 13.7286C52.2019 7.08728 38.5757 5.61487 26.8842 10.9297C15.1926 16.2446 8.9959 26.7283 9.2939 37.0267ZM49.1532 56.8601L49.3776 56.7581C49.3403 56.7752 49.3029 56.7923 49.2655 56.8093C49.2281 56.8263 49.1907 56.8432 49.1532 56.8601Z" fill="#5DC5FF"/>
</g>
</svg>
