<svg width="78" height="78" viewBox="0 0 78 78" fill="none" xmlns="http://www.w3.org/2000/svg">
<path fill-rule="evenodd" clip-rule="evenodd" d="M41.6173 9.69336C50.0025 9.69336 56.9166 14.9059 57.8873 21.6294C64.6805 23.224 69.7715 29.8042 69.7715 37.6795C69.7715 46.7473 63.0219 54.0982 54.6958 54.0982C51.0229 54.0982 47.6568 52.6677 45.0416 50.2905H34.574V50.2894C34.5062 50.2902 34.4383 50.2906 34.3703 50.2906C26.0964 50.2906 19.3892 44.5386 19.3892 37.4432C19.3892 33.0714 21.9354 29.2097 25.8256 26.8891C25.4379 25.7327 25.2308 24.5141 25.2308 23.2555C25.2308 15.7653 32.5673 9.69336 41.6173 9.69336ZM52.1218 27.0963C52.1218 27.317 52.1149 27.536 52.1013 27.7532C52.1359 27.753 52.1706 27.7528 52.2054 27.7528C58.2788 27.7528 63.2022 32.0703 63.2022 37.3963C63.2022 42.6996 58.3205 47.0031 52.2827 47.0395V47.2137H36.442V46.9729C36.388 46.9735 36.3338 46.9738 36.2796 46.9738C29.6941 46.9738 24.3555 42.3956 24.3555 36.7481C24.3555 32.5135 27.357 28.8801 31.635 27.3271C31.6333 27.2504 31.6325 27.1734 31.6325 27.0963C31.6325 21.415 36.2192 16.8095 41.8771 16.8095C47.5351 16.8095 52.1218 21.415 52.1218 27.0963Z" fill="#D3D3D3"/>
<path fill-rule="evenodd" clip-rule="evenodd" d="M33.3153 23.2789C41.4137 23.2789 48.1617 28.2376 49.6558 34.8076C56.7753 36.6454 62.0182 42.9119 62.0182 50.3597C62.0182 59.0093 54.9467 66.0657 46.0767 66.4418V66.4515H45.7932C45.6397 66.4555 45.4858 66.4576 45.3313 66.4576C45.1769 66.4576 45.0229 66.4555 44.8695 66.4515H25.1409C25.0144 66.454 24.8875 66.4553 24.7603 66.4553C15.5742 66.4553 8.12744 59.9087 8.12744 51.8331C8.12744 46.3097 11.6111 41.5016 16.7522 39.0142C16.6955 38.5349 16.6665 38.0486 16.6665 37.5565C16.6665 29.6712 24.1204 23.2789 33.3153 23.2789Z" fill="#D3D3D3"/>
</svg>
