<svg width="78" height="78" viewBox="0 0 78 78" fill="none" xmlns="http://www.w3.org/2000/svg">
<path fill-rule="evenodd" clip-rule="evenodd" d="M38.8369 8.46582C37.2148 8.46582 35.8998 9.7808 35.8998 11.4029V14.2785L34.1235 13.2123C32.6912 12.3526 30.8725 12.8396 30.0615 14.3C29.2504 15.7605 29.7541 17.6413 31.1864 18.501L35.8998 21.3301V27.2168C33.9227 27.7782 32.1534 28.8631 30.7384 30.3193L25.8299 27.3732L25.8299 21.6267C25.8299 19.9566 24.5149 18.6028 22.8928 18.6028C21.2707 18.6028 19.9557 19.9566 19.9557 21.6267L19.9557 23.8474L17.7078 22.4981C16.2754 21.6384 14.4568 22.1254 13.6457 23.5858C12.8347 25.0462 13.3383 26.9271 14.7707 27.7868L17.1823 29.2343L15.0056 30.5408C13.6144 31.3758 13.1441 33.2367 13.9552 34.6971C14.7662 36.1575 16.5515 36.6645 17.9427 35.8295L23.0565 32.7601L27.7262 35.5629C27.4193 36.6531 27.2547 37.8065 27.2547 38.9998C27.2547 40.0706 27.3872 41.1092 27.6362 42.0989L22.7298 45.0438L17.9432 42.1708C16.552 41.3357 14.7667 41.8427 13.9557 43.3032C13.1446 44.7636 13.6149 46.6244 15.0062 47.4595L16.8556 48.5695L14.6076 49.9189C13.1753 50.7786 12.6716 52.6594 13.4827 54.1198C14.2937 55.5803 16.1124 56.0673 17.5447 55.2075L19.9567 53.7598V56.3727C19.9567 58.0427 21.2717 59.3966 22.8938 59.3966C24.5159 59.3966 25.8309 58.0427 25.8309 56.3727L25.8309 50.234L30.5022 47.4302C31.9544 49.0124 33.8111 50.1897 35.8998 50.7829V56.6699L31.1864 59.499C29.7541 60.3587 29.2504 62.2395 30.0615 63.7C30.8725 65.1604 32.6912 65.6474 34.1235 64.7877L35.8998 63.7215V66.5971C35.8998 68.2192 37.2148 69.5342 38.8369 69.5342C40.459 69.5342 41.774 68.2192 41.774 66.5971V63.5264L43.8753 64.7877C45.3076 65.6474 47.1262 65.1604 47.9373 63.7C48.7483 62.2395 48.2447 60.3587 46.8124 59.499L41.774 56.4749V50.8718C43.997 50.313 45.9733 49.0969 47.5018 47.4326L52.1702 50.2346V56.3731C52.1702 58.0432 53.4851 59.397 55.1073 59.397C56.7294 59.397 58.0444 58.0432 58.0443 56.3731V53.7604L60.4557 55.2077C61.888 56.0674 63.7066 55.5804 64.5177 54.12C65.3287 52.6596 64.8251 50.7787 63.3928 49.919L61.1448 48.5698L62.994 47.4599C64.3852 46.6248 64.8555 44.764 64.0445 43.3036C63.2334 41.8431 61.4481 41.3362 60.0569 42.1712L55.2706 45.044L50.3691 42.102C50.6186 41.1114 50.7514 40.0717 50.7514 38.9998C50.7514 37.8054 50.5865 36.651 50.279 35.5599L54.9438 32.76L60.0569 35.8289C61.4481 36.6639 63.2334 36.157 64.0445 34.6965C64.8555 33.2361 64.3852 31.3753 62.994 30.5402L60.818 29.2342L63.2297 27.7866C64.662 26.9269 65.1657 25.0461 64.3546 23.5857C63.5436 22.1252 61.725 21.6383 60.2926 22.498L58.0439 23.8477V21.6261C58.0439 19.956 56.7289 18.6022 55.1068 18.6022C53.4847 18.6022 52.1697 19.956 52.1697 21.6261V27.3735L47.2655 30.317C45.772 28.7809 43.8842 27.6582 41.774 27.1278V21.5251L46.8124 18.501C48.2447 17.6413 48.7483 15.7605 47.9373 14.3C47.1262 12.8396 45.3076 12.3526 43.8753 13.2123L41.774 14.4736V11.4029C41.774 9.7808 40.459 8.46582 38.8369 8.46582Z" fill="#5DC5FF"/>
</svg>
