<svg width="78" height="78" viewBox="0 0 78 78" fill="none" xmlns="http://www.w3.org/2000/svg">
<path fill-rule="evenodd" clip-rule="evenodd" d="M54.8088 20.12C52.6354 13.0762 45.6444 7.9209 37.3558 7.9209C27.3306 7.9209 19.2036 15.4628 19.2036 24.7662C19.2036 25.3628 19.237 25.9522 19.3022 26.5328C13.7198 28.9974 9.87207 34.1973 9.87207 40.2135C9.87207 48.6097 17.3662 55.4161 26.6107 55.4161C30.7093 55.4161 34.4638 54.0782 37.3738 51.857C40.4708 53.5911 44.1416 54.5949 48.0771 54.5949C59.1509 54.5949 68.1279 46.6479 68.1279 36.8449C68.1279 29.1323 62.5713 22.5687 54.8088 20.12Z" fill="#D3D3D3"/>
<rect x="28.1775" y="44.6664" width="5.79902" height="9.66503" rx="2.89951" transform="rotate(9 28.1775 44.6664)" fill="#5DC5FF"/>
<rect x="26.061" y="58.0308" width="5.79902" height="9.66503" rx="2.89951" transform="rotate(9 26.061 58.0308)" fill="#5DC5FF"/>
<rect x="37.7236" y="46.1784" width="5.79902" height="9.66503" rx="2.89951" transform="rotate(9 37.7236 46.1784)" fill="#5DC5FF"/>
<rect x="35.6072" y="59.5429" width="5.79902" height="9.66503" rx="2.89951" transform="rotate(9 35.6072 59.5429)" fill="#5DC5FF"/>
<rect x="47.7234" y="43.8603" width="5.79902" height="9.66503" rx="2.89951" transform="rotate(9 47.7234 43.8603)" fill="#5DC5FF"/>
<rect x="45.6067" y="57.2248" width="5.79902" height="9.66503" rx="2.89951" transform="rotate(9 45.6067 57.2248)" fill="#5DC5FF"/>
</svg>
