<svg width="78" height="78" viewBox="0 0 78 78" fill="none" xmlns="http://www.w3.org/2000/svg">
<path fill-rule="evenodd" clip-rule="evenodd" d="M54.8088 20.12C52.6355 13.0762 45.6444 7.9209 37.3559 7.9209C27.3307 7.9209 19.2036 15.4628 19.2036 24.7662C19.2036 25.3628 19.2371 25.9522 19.3023 26.5328C13.7199 28.9974 9.87212 34.1973 9.87212 40.2135C9.87212 48.6097 17.3663 55.4161 26.6108 55.4161C30.7093 55.4161 34.4639 54.0782 37.3738 51.857C40.4709 53.5911 44.1416 54.5949 48.0772 54.5949C59.1509 54.5949 68.1279 46.6479 68.1279 36.8449C68.1279 29.1323 62.5714 22.5687 54.8088 20.12Z" fill="#D3D3D3"/>
<path d="M43.324 36.912C44.1184 36.0301 45.5017 36.0301 46.2961 36.9121L48.0072 38.8117C48.2939 39.13 48.6753 39.3479 49.0952 39.4332L51.5934 39.9406C52.7722 40.18 53.4745 41.3984 53.0909 42.5384L52.3019 44.8829C52.1627 45.2968 52.1627 45.7448 52.3019 46.1587L53.0909 48.5032C53.4745 49.6432 52.7722 50.8616 51.5934 51.101L49.0952 51.6084C48.6753 51.6937 48.2939 51.9116 48.0072 52.2299L46.2961 54.1295C45.5017 55.0115 44.1184 55.0115 43.324 54.1295L41.613 52.2299C41.3262 51.9116 40.9449 51.6937 40.525 51.6084L38.0268 51.101C36.848 50.8616 36.1457 49.6432 36.5293 48.5032L37.3182 46.1587C37.4575 45.7448 37.4575 45.2968 37.3182 44.8829L36.5293 42.5384C36.1457 41.3984 36.848 40.18 38.0268 39.9406L40.525 39.4332C40.9449 39.3479 41.3262 39.13 41.613 38.8117L43.324 36.912Z" fill="#5DC5FF"/>
<path d="M30.0516 51.8637C30.846 50.9817 32.2293 50.9817 33.0237 51.8637L34.7348 53.7634C35.0215 54.0817 35.4029 54.2996 35.8227 54.3848L38.321 54.8923C39.4998 55.1317 40.202 56.35 39.8184 57.4901L39.0295 59.8346C38.8902 60.2484 38.8902 60.6965 39.0295 61.1103L39.8184 63.4548C40.202 64.5949 39.4998 65.8132 38.321 66.0527L35.8227 66.5601C35.4029 66.6454 35.0215 66.8632 34.7348 67.1816L33.0237 69.0812C32.2293 69.9632 30.846 69.9632 30.0516 69.0812L28.3405 67.1816C28.0538 66.8632 27.6724 66.6454 27.2526 66.5601L24.7543 66.0527C23.5755 65.8132 22.8732 64.5949 23.2568 63.4548L24.0458 61.1103C24.185 60.6965 24.185 60.2484 24.0458 59.8346L23.2568 57.4901C22.8732 56.35 23.5755 55.1317 24.7543 54.8923L27.2526 54.3848C27.6724 54.2996 28.0538 54.0817 28.3405 53.7634L30.0516 51.8637Z" fill="#5DC5FF"/>
</svg>
