<svg width="59" height="56" viewBox="0 0 59 56" fill="none" xmlns="http://www.w3.org/2000/svg">
<g id="Group 4738">
<ellipse id="Ellipse 155" cx="29.0467" cy="14.9159" rx="29.0467" ry="14.9159" fill="#D3D3D3"/>
<path id="Vector 27" d="M24.3365 38.4673C7.5 36.5 4.44866 30.0934 3.92529 25.9065C7 28.5 16.0794 31.872 25.5 32.5C34.9206 33.128 46 30.5 51.5 27C51.5 27 46.2449 41.0272 24.3365 38.4673Z" fill="#D3D3D3"/>
<g id="Vector 28">
<path d="M32.9718 48.6729C19.626 49.4579 16 42.5 14.1307 39.5C14.9157 40.285 23.5512 43.285 32.9718 42.5C41.108 41.822 46.3176 38.729 48.6727 36.8972C48.6727 36.8972 50.3725 47.6493 32.9718 48.6729Z" fill="#D3D3D3"/>
<path d="M36.8973 51.8131C34.8037 53.3832 31.5001 57.5 20.411 54.1682C12.8029 51.8823 13.0839 46.8411 14.1307 44.7477C15.5 46.5 18 49.8364 22.7664 51.028C28.3838 52.4324 34.8038 51.8131 36.8973 51.8131Z" fill="#D3D3D3"/>
</g>
</g>
</svg>
