<svg width="78" height="78" viewBox="0 0 78 78" fill="none" xmlns="http://www.w3.org/2000/svg">
<circle cx="38.9529" cy="39" r="19.9077" fill="#FFC04D"/>
<rect x="35.8147" y="4" width="6.37046" height="9.55569" rx="3.18523" fill="#FFC04D"/>
<rect x="35.8147" y="64.4444" width="6.37046" height="9.55569" rx="3.18523" fill="#FFC04D"/>
<rect x="61.4963" y="11.9988" width="6.37046" height="9.55569" rx="3.18523" transform="rotate(45 61.4963 11.9988)" fill="#FFC04D"/>
<rect x="18.7559" y="54.7397" width="6.37046" height="9.55569" rx="3.18523" transform="rotate(45 18.7559 54.7397)" fill="#FFC04D"/>
<rect x="74" y="35.8147" width="6.37046" height="9.55569" rx="3.18523" transform="rotate(90 74 35.8147)" fill="#FFC04D"/>
<rect x="13.5557" y="35.8151" width="6.37046" height="9.55569" rx="3.18523" transform="rotate(90 13.5557 35.8151)" fill="#FFC04D"/>
<rect x="66.0012" y="61.4964" width="6.37046" height="9.55569" rx="3.18523" transform="rotate(135 66.0012 61.4964)" fill="#FFC04D"/>
<rect x="23.2603" y="18.7559" width="6.37046" height="9.55569" rx="3.18523" transform="rotate(135 23.2603 18.7559)" fill="#FFC04D"/>
</svg>
