<svg width="40" height="40" viewBox="0 0 40 40" fill="none" xmlns="http://www.w3.org/2000/svg">
<path d="M9.45512 19.9988C7.0312 17.5485 5.61724 16.1192 3.98993 14.0227C2.78554 12.1833 2.18335 10.4808 2.18335 8.91539C2.18335 6.56722 2.91431 4.69651 4.37624 3.30325C5.83817 1.91 7.53113 1.21338 9.45512 1.21338C11.3791 1.21338 13.0721 1.91 14.534 3.30325C15.9959 4.69651 16.7269 6.56722 16.7269 8.91539C16.7269 10.4808 16.1247 12.1833 14.9203 14.0227C13.495 15.915 11.677 17.5485 9.45512 19.9988Z" fill="#2AB1EC"/>
<circle cx="9.45499" cy="8.48447" r="2.42392" fill="white"/>
<path d="M27.8143 27.2651L24.6462 19.9164L23.3175 17.0376H20.8817" stroke="white" stroke-width="2" stroke-linecap="round" stroke-linejoin="round"/>
<path fill-rule="evenodd" clip-rule="evenodd" d="M12.1251 20.2603C12.1251 19.708 12.5728 19.2603 13.1251 19.2603H14.6289H15.1817C15.734 19.2603 16.1817 19.708 16.1817 20.2603C16.1817 20.509 16.0909 20.7365 15.9406 20.9115L17.5983 25.3374L25.0156 22.503C26.0377 22.1124 27.13 23.1861 26.445 23.908L22.1671 28.4164C22.0372 28.5533 21.8552 28.6505 21.6454 28.6951L19.0613 29.2436L20.2926 32.5309H21.036C21.5882 32.5309 22.036 32.9786 22.036 33.5309C22.036 34.0832 21.5882 34.5309 21.036 34.5309H19.5993C19.1823 34.5309 18.8091 34.2722 18.6628 33.8817L17.083 29.6636L16.3977 29.809C16.4594 30.16 16.4916 30.5211 16.4916 30.8898C16.4916 34.3142 13.7156 37.0902 10.2912 37.0902C6.86683 37.0902 4.09082 34.3142 4.09082 30.8898C4.09082 27.4654 6.86683 24.6894 10.2912 24.6894C12.2914 24.6894 14.0704 25.6365 15.2042 27.1067L15.9155 26.5464L13.9356 21.2603H13.1251C12.5728 21.2603 12.1251 20.8125 12.1251 20.2603ZM12.4916 30.8898C12.4916 32.105 11.5065 33.0902 10.2912 33.0902C9.07597 33.0902 8.09082 32.105 8.09082 30.8898C8.09082 29.6745 9.07597 28.6894 10.2912 28.6894C11.5065 28.6894 12.4916 29.6745 12.4916 30.8898ZM31.909 30.8899C31.909 32.1052 30.9239 33.0903 29.7087 33.0903C28.4934 33.0903 27.5083 32.1052 27.5083 30.8899C27.5083 29.6747 28.4934 28.6895 29.7087 28.6895C30.9239 28.6895 31.909 29.6747 31.909 30.8899ZM35.909 30.8899C35.909 34.3143 33.133 37.0903 29.7087 37.0903C26.2843 37.0903 23.5083 34.3143 23.5083 30.8899C23.5083 27.4655 26.2843 24.6895 29.7087 24.6895C33.133 24.6895 35.909 27.4655 35.909 30.8899Z" fill="white"/>
</svg>
