<svg width="16" height="18" viewBox="0 0 16 18" fill="none" xmlns="http://www.w3.org/2000/svg">
<g id="Frame 3500">
<g id="Group 3508">
<path id="Vector 17 (Stroke)" fill-rule="evenodd" clip-rule="evenodd" d="M1.47691 12.2633C7.42537 12.9126 10.7302 11.2185 12.5815 8.97238C14.2553 6.94162 14.8749 4.30092 14.9824 2.0405C14.1468 2.2503 13.2021 2.31681 12.3518 2.34044C11.7414 2.3574 11.1321 2.35224 10.5843 2.34665C10.556 2.34636 10.5278 2.34607 10.4998 2.34578C9.97754 2.3404 9.52601 2.33575 9.15496 2.34775C4.44448 2.50014 2.4356 4.17335 1.59294 5.98786C0.700643 7.90923 0.945666 10.3264 1.47691 12.2633ZM0.524872 12.5726C-0.595055 8.53513 -0.79153 1.669 9.12263 1.34828C9.51587 1.33555 9.98763 1.34043 10.4998 1.34573C12.1621 1.36291 14.2504 1.38449 15.4631 0.823232C15.6895 0.718434 15.9961 0.86093 15.9989 1.11043C16.0573 6.21108 13.7706 14.623 1.34267 13.2546C0.958563 13.2123 0.62816 12.945 0.524872 12.5726Z" fill="#9D9D9D"/>
<path id="Vector 18 (Stroke)" fill-rule="evenodd" clip-rule="evenodd" d="M8.12112 6.30887C8.22669 6.65198 8.03413 7.01571 7.69102 7.12128C4.65519 8.05538 3.03103 10.0594 2.21426 11.9945C1.80338 12.968 1.59858 13.9221 1.5272 14.7059C1.45328 15.5176 1.52912 16.0668 1.606 16.2651C1.73573 16.5999 1.56955 16.9764 1.23483 17.1061C0.9001 17.2358 0.523586 17.0696 0.393858 16.7349C0.20809 16.2556 0.1526 15.466 0.232553 14.588C0.315041 13.6823 0.549301 12.5961 1.01657 11.489C1.9561 9.263 3.84455 6.94467 7.3087 5.87877C7.65181 5.7732 8.01554 5.96576 8.12112 6.30887Z" fill="#9D9D9D"/>
</g>
</g>
</svg>
