<svg width="40" height="40" viewBox="0 0 40 40" fill="none" xmlns="http://www.w3.org/2000/svg">
<path fill-rule="evenodd" clip-rule="evenodd" d="M19.2879 10.581C18.7801 10.581 18.3071 10.9008 18.1008 11.416C17.727 12.3499 16.6669 12.8039 15.733 12.4301C14.7991 12.0562 14.345 10.9961 14.7189 10.0622C15.4426 8.2542 17.1965 6.93811 19.2879 6.93811C22.0555 6.93811 24.2194 9.22692 24.2194 11.9508C24.2194 14.6747 22.0555 16.9635 19.2879 16.9635H7.85714C6.85119 16.9635 6.03571 16.1481 6.03571 15.1421C6.03571 14.1362 6.85119 13.3207 7.85714 13.3207H19.2879C19.9556 13.3207 20.5766 12.7519 20.5766 11.9508C20.5766 11.1497 19.9556 10.581 19.2879 10.581ZM29.4273 15.3679C28.8277 15.3679 28.3252 15.7293 28.1189 16.2255C27.7326 17.1543 26.6665 17.5941 25.7377 17.2078C24.8088 16.8215 24.369 15.7554 24.7553 14.8265C25.5152 12.9995 27.3264 11.725 29.4273 11.725C32.1964 11.725 34.4801 13.948 34.4801 16.7378C34.4801 19.5275 32.1964 21.7505 29.4273 21.7505H11.0884C10.0825 21.7505 9.26701 20.935 9.26701 19.929C9.26701 18.9231 10.0825 18.1076 11.0884 18.1076H29.4273C30.2274 18.1076 30.8372 17.473 30.8372 16.7378C30.8372 16.0025 30.2274 15.3679 29.4273 15.3679ZM12.4983 24.716C12.4983 23.71 13.3138 22.8945 14.3197 22.8945H25.7505C28.5181 22.8945 30.682 25.1833 30.682 27.9072C30.682 30.6311 28.5181 32.92 25.7505 32.92C23.6591 32.92 21.9052 31.6039 21.1815 29.7959C20.8076 28.862 21.2617 27.8019 22.1956 27.428C23.1295 27.0542 24.1896 27.5082 24.5634 28.4421C24.7697 28.9573 25.2427 29.2771 25.7505 29.2771C26.4182 29.2771 27.0392 28.7083 27.0392 27.9072C27.0392 27.1062 26.4182 26.5374 25.7505 26.5374H14.3197C13.3138 26.5374 12.4983 25.7219 12.4983 24.716Z" fill="#FE42A6"/>
<ellipse cx="28.4735" cy="8.14843" rx="1.52449" ry="1.50561" fill="white"/>
<ellipse cx="12.5641" cy="31.0987" rx="2.28673" ry="2.25842" fill="white"/>
</svg>
