<svg width="18" height="22" viewBox="0 0 18 22" fill="none" xmlns="http://www.w3.org/2000/svg">
<path d="M0 4.5C0 2.29086 1.79086 0.5 4 0.5H14C16.2091 0.5 18 2.29086 18 4.5V17.5C18 18.6046 17.1046 19.5 16 19.5H2C0.89543 19.5 0 18.6046 0 17.5V4.5Z" fill="#2A41CD"/>
<path d="M2 19.5H5V20.5C5 21.0523 4.55228 21.5 4 21.5H3C2.44772 21.5 2 21.0523 2 20.5V19.5Z" fill="#2A41CD"/>
<path d="M13 19.5H16V20.5C16 21.0523 15.5523 21.5 15 21.5H14C13.4477 21.5 13 21.0523 13 20.5V19.5Z" fill="#2A41CD"/>
<rect x="5.29395" y="2.5" width="7.41176" height="2" fill="white"/>
<rect x="2" y="14.5" width="3" height="3" rx="1.5" fill="white"/>
<rect x="13" y="14.5" width="3" height="3" rx="1.5" fill="white"/>
<rect x="2" y="6.5" width="14" height="6" rx="1" fill="white"/>
</svg>
