<svg width="24" height="24" viewBox="0 0 24 24" fill="none" xmlns="http://www.w3.org/2000/svg">
<path d="M14.3418 8.96191C14.639 8.59867 15.1748 8.54477 15.5381 8.8418C15.9013 9.13899 15.9552 9.67476 15.6582 10.0381L11.1582 15.5381C11.0061 15.724 10.7818 15.8367 10.542 15.8486C10.3023 15.8605 10.0691 15.7703 9.89941 15.6006L7.89941 13.6006L7.84082 13.5361C7.56861 13.2023 7.58825 12.7106 7.89941 12.3994C8.21058 12.0882 8.70228 12.0686 9.03613 12.3408L9.10059 12.3994L10.4355 13.7344L14.3418 8.96191Z" fill="#16A34A"/>
<path fill-rule="evenodd" clip-rule="evenodd" d="M12 2.15039C17.44 2.15039 21.8496 6.56 21.8496 12C21.8496 17.44 17.44 21.8496 12 21.8496C6.56 21.8496 2.15039 17.44 2.15039 12C2.15039 6.56 6.56 2.15039 12 2.15039ZM12 3.84961C7.49888 3.84961 3.84961 7.49888 3.84961 12C3.84961 16.5011 7.49888 20.1504 12 20.1504C16.5011 20.1504 20.1504 16.5011 20.1504 12C20.1504 7.49888 16.5011 3.84961 12 3.84961Z" fill="#16A34A"/>
</svg>
