<svg width="16" height="19" viewBox="0 0 16 19" fill="none" xmlns="http://www.w3.org/2000/svg">
<g id="Frame 3497">
<g id="Group 3506">
<path id="Vector" d="M8 0.5L0.696 3.01824C0.498611 3.05902 0.322081 3.16114 0.195546 3.30773C0.0690115 3.45431 3.47003e-05 3.63662 0 3.82455V11.0663C0.000210094 11.8821 0.217098 12.6853 0.631421 13.4046C1.04574 14.1239 1.64469 14.737 2.37511 15.1895L7.47695 18.3509C7.79785 18.5497 8.20215 18.5497 8.52305 18.3509L13.6249 15.1895C14.3554 14.7369 14.9545 14.1237 15.3688 13.4042C15.7831 12.6848 15.9999 11.8814 16 11.0654V3.82455C16 3.63662 15.931 3.45431 15.8045 3.30773C15.6779 3.16114 15.5014 3.05902 15.304 3.01824L8 0.5Z" fill="#1E1E1E"/>
<path id="Vector (Stroke)" fill-rule="evenodd" clip-rule="evenodd" d="M1 3.98039L1 11.066C1 11.0659 1 11.0661 1 11.066C1.00021 11.6998 1.16847 12.3286 1.49584 12.8969C1.82363 13.466 2.30281 13.9601 2.89809 14.3289L8 17.4903L13.1018 14.3289C13.6972 13.96 14.1765 13.4658 14.5043 12.8967C14.8317 12.3282 14.9999 11.6995 15 11.0654C15 11.0654 15 11.0655 15 11.0654V3.98039L8 1.56696L1 3.98039ZM8 0.5L0.696 3.01824C0.498611 3.05902 0.322081 3.16114 0.195546 3.30773C0.0690115 3.45431 3.47003e-05 3.63662 0 3.82455V11.0663C0.000210094 11.8821 0.217098 12.6853 0.631421 13.4046C1.04574 14.1239 1.64469 14.737 2.37511 15.1895L7.47695 18.3509C7.79785 18.5497 8.20215 18.5497 8.52305 18.3509L13.6249 15.1895C14.3554 14.7369 14.9545 14.1237 15.3688 13.4042C15.7831 12.6848 15.9999 11.8814 16 11.0654V3.82455C16 3.63662 15.931 3.45431 15.8045 3.30773C15.6779 3.16114 15.5014 3.05902 15.304 3.01824L8 0.5Z" fill="#1E1E1E"/>
<g id="Group 3470">
<path id="Vector_2" d="M3.49976 13.2045H12.4998C12.3778 12.1382 11.8512 11.1527 11.0208 10.4369C10.1904 9.72105 9.1147 9.3252 7.99976 9.3252C6.88482 9.3252 5.80909 9.72105 4.97871 10.4369C4.14833 11.1527 3.62171 12.1382 3.49976 13.2045Z" fill="white"/>
<ellipse id="Ellipse 12" cx="7.99975" cy="6.6601" rx="1.93505" ry="2.01813" fill="white"/>
</g>
</g>
</g>
</svg>
