<svg width="16" height="19" viewBox="0 0 16 19" fill="none" xmlns="http://www.w3.org/2000/svg">
<g id="Group 3472">
<path id="Vector 17" d="M1.00668 12.439C0.45709 10.4576 0.164998 7.87555 1.13945 5.77726C2.08587 3.73935 4.30501 2.00439 9.1388 1.84801C9.52092 1.83565 9.98252 1.84042 10.4995 1.84575C10.5293 1.84606 10.5593 1.84637 10.5894 1.84667C11.1377 1.85227 11.7382 1.8573 12.3379 1.84063C13.441 1.80998 14.6187 1.70598 15.4999 1.3517C15.4918 3.80924 14.9168 6.92524 12.9673 9.29039C10.9814 11.6998 7.48642 13.4281 1.39739 12.7576C1.2052 12.7365 1.05232 12.6035 1.00668 12.439Z" fill="#1E1E1E" stroke="#1E1E1E"/>
<path id="Vector 18" d="M1.00005 16.5C0.474748 15.1446 1 8.5 7.49998 6.5" stroke="#1E1E1E" stroke-width="1.3" stroke-linecap="round"/>
<path id="Vector 19" d="M1.5 12.5C2 10.5 4.50006 7.5 7.50009 6.5" stroke="white" stroke-width="1.3" stroke-linecap="round"/>
</g>
</svg>
