<svg width="51" height="50" viewBox="0 0 51 50" fill="none" xmlns="http://www.w3.org/2000/svg">
<g id="Frame 3466338">
<g id="Group 4769">
<rect id="Rectangle 5629" x="0.5" width="50" height="50" rx="6" fill="#15B100"/>
<path id="Vector 206 (Stroke)" fill-rule="evenodd" clip-rule="evenodd" d="M15.4084 27.9634H36.847L40.7778 41.157H10.2223L15.4084 27.9634ZM16.7497 29.4195L13.459 38.7009H37.5273L35.4172 29.4195H16.7497Z" fill="white"/>
<path id="Vector" d="M25.463 33.1171C22.5662 30.2119 20.7813 28.3806 18.7526 25.7942C17.1698 23.3892 16.4446 21.2607 16.4446 19.3871C16.4446 16.4004 17.373 14.1195 19.1606 12.4313C21.0038 10.6905 23.1001 9.84326 25.4902 9.84326C27.8803 9.84326 29.9766 10.6905 31.8198 12.4313C33.6075 14.1195 34.5358 16.4004 34.5358 19.3871C34.5358 21.2622 33.8095 23.3927 32.224 25.8001C31.2819 27.036 30.2028 28.2001 28.9586 29.4883C28.6482 29.8096 28.3273 30.139 27.9964 30.4786C27.2063 31.2895 26.3591 32.1589 25.463 33.1171Z" fill="#15B100" stroke="white" stroke-width="2"/>
<path id="Vector (Stroke)" fill-rule="evenodd" clip-rule="evenodd" d="M23.2199 14.9873C23.6807 14.9873 24.0543 15.3609 24.0543 15.8217V24.1658C24.0543 24.6267 23.6807 25.0002 23.2199 25.0002C22.7591 25.0002 22.3855 24.6267 22.3855 24.1658V15.8217C22.3855 15.3609 22.7591 14.9873 23.2199 14.9873Z" fill="white"/>
<path id="Vector_2" d="M23.4178 21.118H26.1458C26.8693 21.118 27.5632 20.8395 28.0747 20.3439C28.5863 19.8482 28.8737 19.176 28.8737 18.475C28.8737 17.7741 28.5863 17.1018 28.0747 16.6061C27.5632 16.1105 26.8693 15.832 26.1458 15.832H23.4178" stroke="white" stroke-width="2" stroke-linecap="round" stroke-linejoin="round"/>
</g>
</g>
</svg>
