<svg width="24" height="24" viewBox="0 0 24 24" fill="none" xmlns="http://www.w3.org/2000/svg">
<path fill-rule="evenodd" clip-rule="evenodd" d="M12 2C15.936 2 19.264 4.91396 19.7842 8.81543L21.1426 19H16.6436C15.7393 20.7473 14.0382 22 12 22C9.96181 22 8.26074 20.7473 7.35645 19H2.85742L4.21582 8.81543C4.73602 4.91396 8.06401 2 12 2ZM9.78027 19C10.3891 19.6366 11.1772 20 12 20C12.8228 20 13.6109 19.6366 14.2197 19H9.78027ZM12 4C9.06655 4 6.58614 6.17146 6.19824 9.0791L5.14258 17H18.8574L17.8018 9.0791C17.4139 6.17146 14.9334 4 12 4Z" fill="#121212"/>
</svg>
