<svg width="28" height="28" viewBox="0 0 28 28" fill="none" xmlns="http://www.w3.org/2000/svg">
<g id="TabIcon" clip-path="url(#clip0_1033_11758)">
<path id="Vector 206" d="M2.5 18.9154V9.74615C2.5 9.19387 2.94771 8.74615 3.5 8.74615H8.87811C9.06663 8.74615 9.25132 8.69286 9.41087 8.59242L15.9672 4.46493C16.6332 4.0457 17.5 4.5243 17.5 5.3112V23.6261C17.5 24.4258 16.6077 24.902 15.9433 24.4568L9.41928 20.0847C9.25459 19.9743 9.06082 19.9154 8.86258 19.9154H3.5C2.94772 19.9154 2.5 19.4677 2.5 18.9154Z" fill="#A8A8A8"/>
<path id="Icon" d="M20.3865 12.4999C21.5 14 21.5 16 20.5194 17.463" stroke="#A8A8A8" stroke-width="2" stroke-linecap="round"/>
<path id="Icon_2" d="M23.5 10C26 12.5 25 18 23.5 19.5" stroke="#A8A8A8" stroke-width="2" stroke-linecap="round"/>
</g>
<defs>
<clipPath id="clip0_1033_11758">
<rect width="28" height="28" fill="white"/>
</clipPath>
</defs>
</svg>
