<svg width="146" height="62" viewBox="0 0 146 62" fill="none" xmlns="http://www.w3.org/2000/svg">
<g id="&#236;&#167;&#128;&#235;&#143;&#132; &#237;&#148;&#189;&#237;&#134;&#160;&#234;&#183;&#184;&#235;&#158;&#168;">
<g id="Group 4747">
<g id="Group 4745" opacity="0.6">
<path id="Rectangle 5622" d="M12.3746 37.6992H44.3012L37.8006 61.1543H0.512695L12.3746 37.6992Z" fill="white"/>
<path id="Rectangle 5624" d="M53.1696 37.6992H98.5097L104.829 61.1543H47.0725L53.1696 37.6992Z" fill="white"/>
<path id="Rectangle 5625" d="M100.616 21.1543H127.111L145.513 61.1519H113.479L100.616 21.1543Z" fill="white"/>
<path id="Rectangle 5623" d="M20.4671 21.1543H93.5214L96.4035 30.8291H14.8135L20.4671 21.1543Z" fill="white"/>
</g>
<g id="Group 4746">
<g id="Group 4740">
<path id="Vector" d="M127.064 53.1875C123.731 49.7962 121.787 47.8179 119.549 44.9163C117.892 42.3704 117.064 40.0142 117.064 37.8475C117.064 34.5975 118.07 32.0083 120.08 30.08C122.09 28.1517 124.418 27.1875 127.064 27.1875C129.71 27.1875 132.038 28.1517 134.049 30.08C136.059 32.0083 137.064 34.5975 137.064 37.8475C137.064 40.0142 136.236 42.3704 134.58 44.9163C132.62 47.5353 130.12 49.7962 127.064 53.1875Z" fill="white"/>
<ellipse id="Ellipse 14" cx="127.064" cy="37.2533" rx="3.33333" ry="3.35484" fill="#FFE6D0"/>
</g>
<g id="Group 4741">
<path id="Vector_2" d="M63.0725 44.9609C58.7392 40.6566 56.2114 38.1457 53.3022 34.4628C51.1491 31.2316 50.0725 28.2409 50.0725 25.4909C50.0725 21.3659 51.3793 18.0797 53.9928 15.6322C56.6064 13.1847 59.6329 11.9609 63.0725 11.9609C66.5121 11.9609 69.5387 13.1847 72.1522 15.6322C74.7657 18.0797 76.0725 21.3659 76.0725 25.4909C76.0725 28.2409 74.9959 31.2316 72.8428 34.4628C70.2947 37.787 67.0447 40.6566 63.0725 44.9609Z" fill="white"/>
<ellipse id="Ellipse 14_2" cx="63.0721" cy="24.7354" rx="4.33333" ry="4.25806" fill="#FFE6D0"/>
</g>
<g id="Group 4744">
<path id="Vector_3" d="M108.513 26.1543C106.513 24.1978 105.346 23.0565 104.003 21.3824C103.01 19.9137 102.513 18.5543 102.513 17.3043C102.513 15.4293 103.116 13.9355 104.322 12.823C105.528 11.7105 106.925 11.1543 108.513 11.1543C110.1 11.1543 111.497 11.7105 112.703 12.823C113.91 13.9355 114.513 15.4293 114.513 17.3043C114.513 18.5543 114.016 19.9137 113.022 21.3824C111.846 22.8934 110.346 24.1978 108.513 26.1543Z" fill="white"/>
<ellipse id="Ellipse 14_3" cx="108.513" cy="16.9608" rx="2" ry="1.93548" fill="#FFE6D0"/>
</g>
</g>
</g>
</g>
</svg>
