<svg width="21" height="22" viewBox="0 0 21 22" fill="none" xmlns="http://www.w3.org/2000/svg">
<path d="M0.850098 4C0.850098 1.79086 2.64096 0 4.8501 0H16.8501C19.0592 0 20.8501 1.79086 20.8501 4V17.905C20.8501 19.0095 19.9547 19.905 18.8501 19.905H2.8501C1.74553 19.905 0.850098 19.0095 0.850098 17.905V4Z" fill="#B25CF9"/>
<path d="M3.07227 19.9043H6.4056V20.9996C6.4056 21.5518 5.95788 21.9996 5.4056 21.9996H4.07226C3.51998 21.9996 3.07227 21.5518 3.07227 20.9996V19.9043Z" fill="#B25CF9"/>
<path d="M15.2949 19.9043H18.6283V20.9996C18.6283 21.5518 18.1805 21.9996 17.6283 21.9996H16.2949C15.7426 21.9996 15.2949 21.5518 15.2949 20.9996V19.9043Z" fill="#B25CF9"/>
<rect x="6.73242" y="2.0957" width="8.23529" height="2.09526" rx="1" fill="#F4F4F4"/>
<rect x="3.07227" y="14.667" width="3.33333" height="3.14289" rx="1.57145" fill="#F4F4F4"/>
<rect x="15.2949" y="14.667" width="3.33333" height="3.14289" rx="1.57145" fill="#F4F4F4"/>
<rect x="3.07227" y="6.28613" width="15.5556" height="6.28578" rx="1" fill="#F4F4F4"/>
</svg>
