<svg width="22" height="22" viewBox="0 0 22 22" fill="none" xmlns="http://www.w3.org/2000/svg">
<path d="M2.83987 17H19.0994C19.5512 17 19.8073 16.3342 19.5413 15.9527C18.9253 15.0693 18.327 13.7672 18.327 12.197L18.3535 10.0491C18.3535 5.78877 15.0474 2.33504 10.9691 2.33504C6.95005 2.33504 3.69195 5.73863 3.69195 9.93717L3.66547 12.197C3.66547 13.7565 3.04573 15.0516 2.40364 15.9346C2.12692 16.3151 2.38242 17 2.83987 17Z" fill="#2AB1EC"/>
<path d="M2.40364 15.9346L1.59486 15.3464H1.59486L2.40364 15.9346ZM3.66547 12.197L2.66547 12.1852V12.197H3.66547ZM3.69195 9.93717L4.69195 9.94889V9.93717H3.69195ZM19.5413 15.9527L20.3616 15.3807L20.3616 15.3807L19.5413 15.9527ZM18.327 12.197L17.327 12.1846V12.197H18.327ZM18.3535 10.0491L19.3535 10.0615V10.0491H18.3535ZM0.0705689 4.37598C-0.133222 4.88929 0.117694 5.47061 0.631004 5.6744C1.14432 5.87819 1.72564 5.62728 1.92943 5.11397L0.0705689 4.37598ZM4.73779 1.87845C5.22295 1.61456 5.40232 1.00733 5.13842 0.522171C4.87452 0.0370151 4.26729 -0.142351 3.78214 0.121547L4.73779 1.87845ZM18.2043 0.136816C17.722 -0.132248 17.1129 0.0406229 16.8438 0.522933C16.5747 1.00524 16.7476 1.61435 17.2299 1.88342L18.2043 0.136816ZM20.0667 5.0939C20.265 5.60934 20.8437 5.86641 21.3591 5.66808C21.8746 5.46975 22.1316 4.89112 21.9333 4.37567L20.0667 5.0939ZM3.21241 16.5227C3.9406 15.5213 4.66547 14.0246 4.66547 12.197H2.66547C2.66547 13.4884 2.15085 14.5818 1.59486 15.3464L3.21241 16.5227ZM4.6654 12.2087L4.69189 9.94889L2.69202 9.92545L2.66554 12.1852L4.6654 12.2087ZM20.3616 15.3807C19.8289 14.6168 19.327 13.5107 19.327 12.197H17.327C17.327 14.0237 18.0218 15.5219 18.7211 16.5247L20.3616 15.3807ZM19.3269 12.2093L19.3534 10.0615L17.3535 10.0368L17.3271 12.1846L19.3269 12.2093ZM19.3535 10.0491C19.3535 5.27811 15.6404 1.33504 10.9691 1.33504V3.33504C14.4544 3.33504 17.3535 6.29943 17.3535 10.0491H19.3535ZM19.0994 18C19.8734 18 20.3364 17.4364 20.5156 16.9968C20.6968 16.5521 20.7349 15.9161 20.3616 15.3807L18.7211 16.5247C18.6652 16.4445 18.6517 16.3713 18.6495 16.3318C18.6474 16.2937 18.6539 16.2655 18.6635 16.242C18.6724 16.22 18.6975 16.1699 18.7624 16.1167C18.8344 16.0577 18.9526 16 19.0994 16V18ZM4.69195 9.93717C4.69195 6.24929 7.54306 3.33504 10.9691 3.33504V1.33504C6.35704 1.33504 2.69195 5.22797 2.69195 9.93717H4.69195ZM2.83987 16C2.98989 16 3.10955 16.06 3.18102 16.1197C3.24508 16.1732 3.26859 16.2226 3.27645 16.2424C3.28493 16.2639 3.29101 16.2904 3.28854 16.3278C3.28596 16.3665 3.27162 16.4413 3.21241 16.5227L1.59486 15.3464C1.20455 15.8832 1.23948 16.5298 1.41643 16.9775C1.591 17.4192 2.05316 18 2.83987 18V16ZM19.0994 16H2.83987V18H19.0994V16ZM1.92943 5.11397C2.48344 3.71851 3.46897 2.56862 4.73779 1.87845L3.78214 0.121547C2.07257 1.05146 0.784277 2.57828 0.0705689 4.37598L1.92943 5.11397ZM17.2299 1.88342C18.5347 2.61134 19.5454 3.73906 20.0667 5.0939L21.9333 4.37567C21.233 2.55565 19.8901 1.07725 18.2043 0.136816L17.2299 1.88342Z" fill="#2AB1EC"/>
<path d="M14 20L14.6172 20.7868C14.9527 20.5236 15.0844 20.0766 14.9452 19.6735C14.806 19.2704 14.4264 19 14 19V20ZM11.0128 20C10.6419 20 9.97655 19.815 9.34759 19.5688C9.05217 19.4532 8.81406 19.3435 8.67964 19.2724C8.59268 19.2263 8.60866 19.2275 8.66084 19.2704C8.67717 19.2839 8.7265 19.3251 8.78084 19.3915C8.80657 19.423 8.98398 19.6324 8.999 19.9663C9.00814 20.1695 8.95461 20.3931 8.81407 20.5891C8.68361 20.771 8.52305 20.867 8.41512 20.9154C8.22329 21.0014 8.05804 21 8.02554 21V19C7.97541 19 7.79724 19.0006 7.59696 19.0904C7.48481 19.1406 7.32115 19.2389 7.1887 19.4237C7.04615 19.6225 6.99172 19.8493 7.00102 20.0562C7.01637 20.3974 7.19839 20.6158 7.23281 20.6579C7.29584 20.7349 7.35793 20.7884 7.39089 20.8155C7.5096 20.9131 7.65404 20.9924 7.74425 21.0401C7.96419 21.1565 8.27533 21.2968 8.61851 21.4312C9.26675 21.685 10.2361 22 11.0128 22V20ZM13.3828 19.2132C12.7699 19.694 11.9414 20 11.0128 20V22C12.3794 22 13.6446 21.5497 14.6172 20.7868L13.3828 19.2132ZM8.02554 21H14V19H8.02554V21Z" fill="#2AB1EC"/>
</svg>
