<svg width="25" height="23" viewBox="0 0 25 23" fill="none" xmlns="http://www.w3.org/2000/svg">
<g id="Group 3493">
<path id="Vector" d="M22.9995 2.16273C22.413 1.54612 21.7168 1.05699 20.9504 0.723264C20.1841 0.389541 19.3627 0.217773 18.5332 0.217773C17.7036 0.217773 16.8822 0.389541 16.1159 0.723264C15.3495 1.05699 14.6533 1.54612 14.0668 2.16273L12.8498 3.44182L11.6327 2.16273C10.4482 0.91781 8.84162 0.218419 7.16643 0.218419C5.49123 0.218419 3.88465 0.91781 2.70011 2.16273C1.51557 3.40766 0.850098 5.09613 0.850098 6.85672C0.850098 8.61731 1.51557 10.3058 2.70011 11.5507L3.91715 12.8298L12.8498 22.2178L21.7824 12.8298L22.9995 11.5507C23.5862 10.9344 24.0516 10.2026 24.3691 9.39721C24.6867 8.5918 24.8501 7.72853 24.8501 6.85672C24.8501 5.98491 24.6867 5.12164 24.3691 4.31623C24.0516 3.51082 23.5862 2.77905 22.9995 2.16273Z" fill="#FC8D2B"/>
<path id="Vector 20" d="M8.8501 12.13L13.3276 5.47266V9.84912H16.8501L12.1166 17.0334V12.13H8.8501Z" fill="white"/>
</g>
</svg>
