<svg width="146" height="55" viewBox="0 0 146 55" fill="none" xmlns="http://www.w3.org/2000/svg">
<g id="Group 4788" opacity="0.8">
<path id="Rectangle 5642" d="M0.937012 54.9727C0.937012 50.8845 4.25115 47.5703 8.33936 47.5703H138.535C142.623 47.5703 145.937 50.8845 145.937 54.9727H0.937012Z" fill="white"/>
<path id="Union" fill-rule="evenodd" clip-rule="evenodd" d="M69.5658 12.6934C69.2994 12.6934 69.0441 12.7996 68.8564 12.9886L58.754 23.1588C58.1272 23.7897 58.5741 24.8635 59.4634 24.8635H62.5V50.6948C62.5 51.7994 63.3955 52.6948 64.5 52.6948H96.7672C97.8718 52.6948 98.7672 51.7994 98.7672 50.6948V24.8635H101.634C102.546 24.8635 102.982 23.7418 102.309 23.1258L91.1966 12.9557C91.0122 12.7869 90.7714 12.6934 90.5215 12.6934H69.5658ZM79.4245 28.6847H74.5889V33.5527H79.4245V28.6847ZM74.5889 35.9882H79.4245V40.8563H74.5889V35.9882ZM86.6784 28.6847H81.8428V33.5527H86.6784V28.6847ZM81.8428 35.9882H86.6784V40.8563H81.8428V35.9882Z" fill="white"/>
<path id="Subtract" fill-rule="evenodd" clip-rule="evenodd" d="M129.14 16.2601C128.247 16.5134 127.305 16.649 126.331 16.649C120.656 16.649 116.056 12.0488 116.056 6.37415C116.056 4.2544 116.698 2.28456 117.798 0.648438C113.489 1.87065 110.333 5.83394 110.333 10.5344C110.333 16.2091 114.933 20.8093 120.607 20.8093C124.162 20.8093 127.295 19.004 129.14 16.2601Z" fill="white"/>
<path id="Star 8" d="M138.96 2.96939C139.11 2.50873 139.761 2.50873 139.911 2.96938L140.67 5.30627C140.737 5.51228 140.929 5.65176 141.146 5.65176H143.603C144.087 5.65176 144.289 6.27156 143.897 6.55627L141.909 8.00054C141.734 8.12786 141.66 8.35354 141.727 8.55955L142.487 10.8964C142.636 11.3571 142.109 11.7402 141.717 11.4555L139.729 10.0112C139.554 9.88386 139.317 9.88386 139.142 10.0112L137.154 11.4555C136.762 11.7402 136.235 11.3571 136.384 10.8964L137.144 8.55956C137.211 8.35354 137.137 8.12786 136.962 8.00054L134.974 6.55627C134.582 6.27157 134.784 5.65176 135.268 5.65176H137.725C137.942 5.65176 138.134 5.51228 138.201 5.30627L138.96 2.96939Z" fill="white"/>
<path id="Star 9" d="M135.206 18.7414C135.138 18.2619 135.723 17.9748 136.06 18.3224L136.759 19.0429C136.91 19.1983 137.144 19.239 137.338 19.1435L138.24 18.7011C138.675 18.4877 139.128 18.9554 138.902 19.3836L138.433 20.2713C138.332 20.4628 138.365 20.6977 138.516 20.8532L139.215 21.5737C139.553 21.9213 139.248 22.4975 138.771 22.4145L137.782 22.2426C137.568 22.2056 137.355 22.3101 137.254 22.5016L136.785 23.3893C136.559 23.8175 135.917 23.706 135.848 23.2265L135.706 22.2326C135.675 22.0181 135.51 21.8478 135.296 21.8108L134.307 21.6389C133.83 21.5559 133.738 20.9108 134.172 20.6974L135.074 20.255C135.268 20.1596 135.379 19.9498 135.348 19.7353L135.206 18.7414Z" fill="white"/>
</g>
</svg>
