<svg width="16" height="17" viewBox="0 0 16 17" fill="none" xmlns="http://www.w3.org/2000/svg">
<g id="Frame 3495">
<g id="Group 3484">
<path id="Vector 12" d="M0 14.5V1.5C0 0.947715 0.447715 0.5 0.999999 0.5H12.45C13.0023 0.5 13.45 0.947716 13.45 1.5V3.90042V14.1756C13.45 16.4019 14 16.5 14 16.5H2C0.895431 16.5 0 15.6046 0 14.5Z" fill="#1E1E1E"/>
<path id="Vector 12 (Stroke)" fill-rule="evenodd" clip-rule="evenodd" d="M13.5395 15.5C13.6953 16.4457 14 16.5 14 16.5H2C0.895431 16.5 0 15.6046 0 14.5V1.5C0 0.947715 0.447715 0.5 0.999999 0.5H12.45C13.0023 0.5 13.45 0.947716 13.45 1.5V14.1756C13.45 14.7449 13.486 15.1751 13.5395 15.5ZM12.5283 15.5C12.4778 15.1324 12.45 14.696 12.45 14.1756V1.5L1 1.5V14.5C1 15.0523 1.44772 15.5 2 15.5H12.5283Z" fill="#1E1E1E"/>
<path id="Vector 13 (Stroke)" fill-rule="evenodd" clip-rule="evenodd" d="M14.5 9H13.0381V8H14.5C15.3284 8 16 8.67157 16 9.5V14.5C16 15.6046 15.1046 16.5 14 16.5H13V15.5H14C14.5523 15.5 15 15.0523 15 14.5V9.5C15 9.22386 14.7761 9 14.5 9Z" fill="#1E1E1E"/>
<path id="Vector 14 (Stroke)" fill-rule="evenodd" clip-rule="evenodd" d="M2.3501 4.99998C2.3501 4.64099 2.64111 4.34998 3.0001 4.34998H10.0001C10.3591 4.34998 10.6501 4.64099 10.6501 4.99998C10.6501 5.35896 10.3591 5.64998 10.0001 5.64998H3.0001C2.64111 5.64998 2.3501 5.35896 2.3501 4.99998Z" fill="white"/>
<path id="Vector 15 (Stroke)" fill-rule="evenodd" clip-rule="evenodd" d="M2.3501 8.37498C2.3501 8.01599 2.64111 7.72498 3.0001 7.72498H10.0001C10.3591 7.72498 10.6501 8.01599 10.6501 8.37498C10.6501 8.73396 10.3591 9.02498 10.0001 9.02498H3.0001C2.64111 9.02498 2.3501 8.73396 2.3501 8.37498Z" fill="white"/>
<path id="Vector 16 (Stroke)" fill-rule="evenodd" clip-rule="evenodd" d="M2.3501 11.75C2.3501 11.391 2.64111 11.1 3.0001 11.1H8.0001C8.35908 11.1 8.6501 11.391 8.6501 11.75C8.6501 12.109 8.35908 12.4 8.0001 12.4H3.0001C2.64111 12.4 2.3501 12.109 2.3501 11.75Z" fill="white"/>
</g>
</g>
</svg>
