<svg width="24" height="24" viewBox="0 0 24 24" fill="none" xmlns="http://www.w3.org/2000/svg">
<path fill-rule="evenodd" clip-rule="evenodd" d="M12 2C15.936 2 19.264 4.91396 19.7842 8.81543L21.1426 19H16.6436C15.7393 20.7473 14.0382 22 12 22C9.96181 22 8.26074 20.7473 7.35645 19H2.85742L4.21582 8.81543C4.73602 4.91396 8.06401 2 12 2ZM9.78027 19C10.3891 19.6366 11.1772 20 12 20C12.8228 20 13.6109 19.6366 14.2197 19H9.78027ZM12 4C9.06655 4 6.58614 6.17146 6.19824 9.0791L5.14258 17H18.8574L17.8018 9.0791C17.4139 6.17146 14.9334 4 12 4Z" fill="#121212"/>
<path d="M14.4336 14H13.1914L11.0898 10.9453H11.0508V14H9.56641V8.34375H10.832L12.9023 11.3828H12.9492V8.34375H14.4336V14Z" fill="#1A5EFF"/>
<path d="M2.71777 7.46387L2.50488 8.44043L0.550781 8.01367L0.764648 7.03711L2.71777 7.46387Z" fill="#1A5EFF"/>
<path d="M23.4482 8.01367L21.4941 8.44043L21.2812 7.46387L23.2354 7.03711L23.4482 8.01367Z" fill="#1A5EFF"/>
<path d="M5.36719 2.62598L4.72363 3.3916C3.75186 4.54785 3.05086 5.93795 2.71777 7.46387L0.764648 7.03711C1.16867 5.18631 2.01735 3.50256 3.19238 2.10449L3.83594 1.33887L5.36719 2.62598Z" fill="#1A5EFF"/>
<path d="M20.8066 2.10449L21.0234 2.37012C22.0864 3.71382 22.8566 5.30195 23.2354 7.03711L22.2578 7.25L21.2812 7.46387C20.969 6.03341 20.3339 4.72226 19.4551 3.61133L19.2754 3.3916L18.6318 2.62598L20.1631 1.33887L20.8066 2.10449Z" fill="#1A5EFF"/>
</svg>
