<svg width="23" height="20" viewBox="0 0 23 20" fill="none" xmlns="http://www.w3.org/2000/svg">
<g id="Group 3479">
<path id="Vector" d="M19.3571 8.95224H18.3095V4.76177H19.3571V1.61891H21.4524V4.76177H22.5V8.95224H21.4524V16.2856C21.4524 17.1191 21.1213 17.9185 20.5319 18.5079C19.9425 19.0973 19.1431 19.4284 18.3095 19.4284C17.476 19.4284 16.6766 19.0973 16.0872 18.5079C15.4978 17.9185 15.1667 17.1191 15.1667 16.2856V12.0951H13.0714V17.3332H14.119V19.4284H0.5V17.3332H1.54762V1.61891C1.54762 1.34106 1.65799 1.0746 1.85446 0.87813C2.05093 0.681663 2.31739 0.571289 2.59524 0.571289H12.0238C12.3017 0.571289 12.5681 0.681663 12.7646 0.87813C12.9611 1.0746 13.0714 1.34106 13.0714 1.61891V9.99986H15.1667C15.7224 9.99986 16.2553 10.2206 16.6482 10.6135C17.0412 11.0065 17.2619 11.5394 17.2619 12.0951V16.2856C17.2619 16.5634 17.3723 16.8299 17.5687 17.0264C17.7652 17.2228 18.0317 17.3332 18.3095 17.3332C18.5874 17.3332 18.8538 17.2228 19.0503 17.0264C19.2468 16.8299 19.3571 16.5634 19.3571 16.2856V8.95224ZM7.83333 8.95224V4.76177L3.64286 11.0475H6.78571V15.238L10.9762 8.95224H7.83333Z" fill="#FE42A6"/>
<path id="Vector 20" d="M3.38086 11.1001L7.85837 4.57812V8.86559H11.3809L6.64734 15.9038V11.1001H3.38086Z" fill="white"/>
</g>
</svg>
