<svg width="24" height="25" viewBox="0 0 24 25" fill="none" xmlns="http://www.w3.org/2000/svg">
<path fill-rule="evenodd" clip-rule="evenodd" d="M11.9999 4.5C16.239 4.49997 20.3385 7.11119 22.8881 12.0405L23.1257 12.4999L22.8881 12.9594C20.3385 17.8887 16.239 20.5 11.9999 20.5C7.76072 20.5 3.66123 17.8888 1.11164 12.9595L0.874023 12.5001L1.11164 12.0406C3.66123 7.1113 7.76071 4.50003 11.9999 4.5ZM8.49988 12.5C8.49988 10.567 10.0669 9 11.9999 9C13.9329 9 15.4999 10.567 15.4999 12.5C15.4999 14.433 13.9329 16 11.9999 16C10.0669 16 8.49988 14.433 8.49988 12.5Z" fill="#BBBBBB"/>
</svg>
