<svg width="24" height="22" viewBox="0 0 24 22" fill="none" xmlns="http://www.w3.org/2000/svg">
<g id="Group 3481">
<path id="Icon (Stroke)" fill-rule="evenodd" clip-rule="evenodd" d="M10.9136 3.24316C10.4954 3.24316 10.1058 3.50655 9.93599 3.93082C9.62812 4.69991 8.75506 5.07381 7.98597 4.76594C7.21687 4.45807 6.84298 3.58501 7.15085 2.81592C7.74687 1.327 9.19121 0.243164 10.9136 0.243164C13.1927 0.243164 14.9748 2.12807 14.9748 4.37128C14.9748 6.6145 13.1927 8.4994 10.9136 8.4994H1.5C0.671573 8.4994 0 7.82782 0 6.9994C0 6.17097 0.671573 5.4994 1.5 5.4994H10.9136C11.4635 5.4994 11.9748 5.031 11.9748 4.37128C11.9748 3.71156 11.4635 3.24316 10.9136 3.24316ZM19.2637 7.18534C18.7699 7.18534 18.3561 7.48299 18.1861 7.89157C17.868 8.65648 16.99 9.01866 16.2251 8.70053C15.4602 8.3824 15.098 7.50443 15.4162 6.73952C16.0419 5.23491 17.5335 4.18534 19.2637 4.18534C21.5441 4.18534 23.4248 6.01599 23.4248 8.31346C23.4248 10.6109 21.5441 12.4416 19.2637 12.4416H4.16107C3.33264 12.4416 2.66107 11.77 2.66107 10.9416C2.66107 10.1131 3.33264 9.44157 4.16107 9.44157H19.2637C19.9226 9.44157 20.4248 8.91893 20.4248 8.31346C20.4248 7.70798 19.9226 7.18534 19.2637 7.18534ZM5.32214 14.8837C5.32214 14.0553 5.99371 13.3837 6.82214 13.3837H16.2357C18.5149 13.3837 20.297 15.2686 20.297 17.5119C20.297 19.7551 18.5149 21.64 16.2357 21.64C14.5134 21.64 13.069 20.5561 12.473 19.0672C12.1651 18.2981 12.539 17.4251 13.3081 17.1172C14.0772 16.8093 14.9503 17.1832 15.2581 17.9523C15.428 18.3766 15.8175 18.64 16.2357 18.64C16.7856 18.64 17.297 18.1716 17.297 17.5119C17.297 16.8521 16.7856 16.3837 16.2357 16.3837H6.82214C5.99371 16.3837 5.32214 15.7122 5.32214 14.8837Z" fill="#FE42A6"/>
<ellipse id="Ellipse 13" cx="18.4782" cy="1.23991" rx="1.25546" ry="1.23991" fill="#FE42A6"/>
<ellipse id="Ellipse 14" cx="5.37636" cy="20.1401" rx="1.88319" ry="1.85987" fill="#FE42A6"/>
</g>
</svg>
