<svg width="25" height="24" viewBox="0 0 25 24" fill="none" xmlns="http://www.w3.org/2000/svg">
<g id="Group 3489">
<g id="Group 3487">
<path id="Vector" d="M20.3528 8.72754C22.2858 8.72754 23.8528 7.16054 23.8528 5.22754C23.8528 3.29454 22.2858 1.72754 20.3528 1.72754C18.4198 1.72754 16.8528 3.29454 16.8528 5.22754C16.8528 7.16054 18.4198 8.72754 20.3528 8.72754Z" fill="#FC8D2B"/>
<path id="Vector_2" d="M20.3528 11.4199C15.8528 11.4199 15.8528 22.4199 15.8528 22.4199H24.8528C24.8528 22.4199 24.8528 11.4199 20.3528 11.4199Z" fill="#FC8D2B"/>
</g>
<g id="Group 3488">
<path id="Vector_3" d="M5.3501 8.72754C7.28309 8.72754 8.8501 7.16054 8.8501 5.22754C8.8501 3.29454 7.28309 1.72754 5.3501 1.72754C3.4171 1.72754 1.8501 3.29454 1.8501 5.22754C1.8501 7.16054 3.4171 8.72754 5.3501 8.72754Z" fill="#FC8D2B"/>
<path id="Vector_4" d="M5.3501 22.4199C0.850098 22.4199 0.850098 11.4199 0.850098 11.4199H9.8501C9.8501 11.4199 9.8501 22.4199 5.3501 22.4199Z" fill="#FC8D2B"/>
</g>
<path id="Line 12" d="M12.8501 1.72754L12.8501 22.5523" stroke="#FC8D2B" stroke-width="1.5" stroke-linecap="round"/>
</g>
</svg>
