<svg width="17" height="20" viewBox="0 0 17 20" fill="none" xmlns="http://www.w3.org/2000/svg">
<path fill-rule="evenodd" clip-rule="evenodd" d="M8.49998 1.55556C5.08803 1.55556 2.29282 4.58319 2.29282 8.35674V8.36299L2.29278 8.36299L2.26841 10.5385C2.2676 12.1834 1.64332 13.5377 1.00861 14.4507C1.00825 14.4513 1.00195 14.462 1.00023 14.4892C0.998271 14.52 1.00352 14.5583 1.01712 14.5943C1.02486 14.6147 1.03313 14.629 1.03949 14.638H15.9621C15.968 14.6296 15.9756 14.6167 15.9828 14.5982C15.996 14.5642 16.0014 14.5278 15.9999 14.4981C15.9991 14.484 15.997 14.474 15.9951 14.4678C15.9942 14.4648 15.9933 14.4627 15.9927 14.4615L15.9919 14.4598C15.3821 13.5453 14.7815 12.1858 14.7815 10.5353V10.5288L14.7816 10.5288L14.8059 8.46143C14.8043 4.62977 11.9655 1.55556 8.49998 1.55556ZM1.2928 8.35357C1.29437 4.03322 4.50437 0.5 8.49998 0.5C12.5511 0.5 15.806 4.08329 15.806 8.4647V8.47127L15.8059 8.47127L15.7815 10.5386C15.7823 11.9143 16.2843 13.0644 16.8097 13.8524L16.4008 14.1561L16.8097 13.8524C17.054 14.2189 17.0359 14.6705 16.9076 14.9996C16.7801 15.327 16.4731 15.6936 15.9935 15.6936H1.00747C0.520317 15.6936 0.21314 15.3159 0.0882461 14.9853C-0.037506 14.6525 -0.0528167 14.1933 0.202278 13.8264C0.750725 13.0375 1.26839 11.896 1.26839 10.5353V10.5291H1.26842L1.2928 8.35357ZM5.43411 17.7481C5.60043 17.5154 5.91397 17.4691 6.13441 17.6446C6.75216 18.1366 7.58011 18.4444 8.49998 18.4444C9.41985 18.4444 10.2478 18.1366 10.8655 17.6446C11.086 17.4691 11.3995 17.5154 11.5658 17.7481C11.7322 17.9807 11.6883 18.3117 11.4678 18.4872C10.6702 19.1225 9.62909 19.5 8.49998 19.5C7.37087 19.5 6.32974 19.1225 5.53211 18.4872C5.31167 18.3117 5.26779 17.9807 5.43411 17.7481Z" fill="white"/>
</svg>
