<svg width="18" height="20" viewBox="0 0 18 20" fill="none" xmlns="http://www.w3.org/2000/svg">
<g id="Group 3501">
<path id="Rectangle 5554" d="M0 4C0 1.79086 1.79086 0 4 0H14C16.2091 0 18 1.79086 18 4V16.0952C18 17.1998 17.1046 18.0952 16 18.0952H2C0.89543 18.0952 0 17.1998 0 16.0952V4Z" fill="#878787"/>
<path id="Rectangle 5555" d="M2 18.0952H5V19C5 19.5523 4.55228 20 4 20H3C2.44772 20 2 19.5523 2 19V18.0952Z" fill="#878787"/>
<path id="Rectangle 5556" d="M13 18.0952H16V19C16 19.5523 15.5523 20 15 20H14C13.4477 20 13 19.5523 13 19V18.0952Z" fill="#878787"/>
<rect id="Rectangle 5557" x="5.29419" y="1.90479" width="7.41176" height="1.90476" fill="white"/>
<rect id="Rectangle 5558" x="2" y="13.3335" width="3" height="2.85714" rx="1.42857" fill="white"/>
<rect id="Rectangle 5559" x="13" y="13.3335" width="3" height="2.85714" rx="1.42857" fill="white"/>
<rect id="Rectangle 5560" x="2" y="5.71436" width="14" height="5.71429" rx="1" fill="white"/>
</g>
</svg>
