<svg width="40" height="40" viewBox="0 0 40 40" fill="none" xmlns="http://www.w3.org/2000/svg">
<g id="Group 3505">
<g id="Group 3504">
<path id="Line 15 (Stroke)" fill-rule="evenodd" clip-rule="evenodd" d="M16.0225 29.5933C16.0064 29.576 15.9695 29.5415 15.8921 29.5018C10.9449 26.9688 12.6828 19.5042 18.2401 19.4168L33.3396 19.1794C34.7201 19.1577 35.8569 20.2593 35.8786 21.6398C35.9003 23.0204 34.7987 24.1571 33.4182 24.1788L18.3187 24.4162C18.2317 24.4176 18.1833 24.4322 18.1613 24.4406C18.1384 24.4494 18.1216 24.46 18.1061 24.4733C18.0715 24.5034 18.0213 24.5701 17.9967 24.676C17.972 24.7819 17.9875 24.8639 18.0054 24.9062C18.0133 24.925 18.0237 24.9419 18.0404 24.9599C18.0565 24.9771 18.0934 25.0117 18.1708 25.0513C23.1183 27.5845 21.3797 35.0497 15.822 35.1363L8.24537 35.2543C6.86482 35.2758 5.72823 34.1741 5.70672 32.7936C5.68521 31.413 6.78693 30.2765 8.16748 30.2549L15.7442 30.1369C15.8311 30.1355 15.8795 30.1209 15.9016 30.1125C15.9245 30.1038 15.9413 30.0932 15.9567 30.0798C15.9914 30.0498 16.0415 29.983 16.0662 29.8771C16.0908 29.7713 16.0754 29.6892 16.0575 29.647C16.0496 29.6281 16.0392 29.6112 16.0225 29.5933Z" fill="white"/>
<g id="Group 3503">
<path id="Vector" d="M27.2718 21.6792C24.8478 19.2289 23.4339 17.7996 21.8066 15.7031C20.6022 13.8637 20 12.1613 20 10.5958C20 8.24764 20.731 6.37693 22.1929 4.98367C23.6548 3.59042 25.3478 2.8938 27.2718 2.8938C29.1958 2.8938 30.8887 3.59042 32.3506 4.98367C33.8126 6.37693 34.5435 8.24764 34.5435 10.5958C34.5435 12.1613 33.9413 13.8637 32.737 15.7031C31.3116 17.5954 29.4937 19.2289 27.2718 21.6792Z" fill="#FE42A6"/>
<circle id="Ellipse 14" cx="27.2716" cy="10.1651" r="2.42392" fill="white"/>
</g>
</g>
</g>
</svg>
