<svg width="145" height="55" viewBox="0 0 145 55" fill="none" xmlns="http://www.w3.org/2000/svg">
<g clip-path="url(#clip0_1636_9283)">
<path d="M134.515 26.6306C136.796 26.6224 138.639 24.7664 138.631 22.4851C138.623 20.2038 136.767 18.3611 134.485 18.3693C132.204 18.3775 130.361 20.2335 130.369 22.5148C130.377 24.7961 132.233 26.6388 134.515 26.6306Z" fill="#FFF9FC"/>
<path d="M134.627 16H134.373C134.068 16 133.82 16.2474 133.82 16.5526V28.4474C133.82 28.7526 134.068 29 134.373 29H134.627C134.932 29 135.18 28.7526 135.18 28.4474V16.5526C135.18 16.2474 134.932 16 134.627 16Z" fill="#FFF9FC"/>
<path d="M141 22.6271V22.3729C141 22.0677 140.753 21.8203 140.447 21.8203H128.553C128.247 21.8203 128 22.0677 128 22.3729V22.6271C128 22.9323 128.247 23.1797 128.553 23.1797H140.447C140.753 23.1797 141 22.9323 141 22.6271Z" fill="#FFF9FC"/>
<path d="M139.186 17.9937L139.006 17.814C138.791 17.5991 138.44 17.5991 138.225 17.814L129.814 26.2249C129.599 26.4398 129.599 26.7915 129.814 27.0064L129.994 27.186C130.209 27.401 130.56 27.401 130.775 27.186L139.186 18.7752C139.401 18.5603 139.401 18.2086 139.186 17.9937Z" fill="#FFF9FC"/>
<path d="M129.994 17.814L129.814 17.9937C129.599 18.2086 129.599 18.5603 129.814 18.7752L138.225 27.186C138.44 27.401 138.791 27.401 139.006 27.186L139.186 27.0064C139.401 26.7915 139.401 26.4398 139.186 26.2249L130.775 17.814C130.56 17.5991 130.209 17.5991 129.994 17.814Z" fill="#FFF9FC"/>
</g>
<g clip-path="url(#clip1_1636_9283)">
<path d="M17.0298 21.2604C21.5926 21.244 25.2781 17.5319 25.2617 12.9694C25.2453 8.40676 21.5332 4.72135 16.9704 4.73775C12.4076 4.75416 8.72199 8.46617 8.7384 13.0288C8.7548 17.5914 12.467 21.2768 17.0298 21.2604Z" fill="#FFF9FC"/>
<path d="M17.254 -0.000976562H16.746C16.1355 -0.000976562 15.6406 0.493868 15.6406 1.10429V24.8938C15.6406 25.5042 16.1355 25.999 16.746 25.999H17.254C17.8645 25.999 18.3594 25.5042 18.3594 24.8938V1.10429C18.3594 0.493868 17.8645 -0.000976562 17.254 -0.000976562Z" fill="#FFF9FC"/>
<path d="M30.0001 13.2531V12.7448C30.0001 12.1344 29.5052 11.6395 28.8948 11.6395L5.10542 11.6395C4.49497 11.6395 4.00011 12.1344 4.00011 12.7448V13.2531C4.00011 13.8635 4.49497 14.3583 5.10542 14.3583L28.8948 14.3583C29.5052 14.3583 30.0001 13.8635 30.0001 13.2531Z" fill="#FFF9FC"/>
<path d="M26.3722 3.98628L26.0128 3.62694C25.583 3.19711 24.8795 3.19711 24.4497 3.62694L7.62791 20.4487C7.19806 20.8785 7.19806 21.5818 7.62791 22.0117L7.98727 22.371C8.41712 22.8008 9.12057 22.8008 9.55043 22.371L26.3722 5.54926C26.802 5.11943 26.802 4.41611 26.3722 3.98628Z" fill="#FFF9FC"/>
<path d="M7.98727 3.62694L7.62791 3.98628C7.19806 4.41611 7.19806 5.11943 7.62791 5.54926L24.4497 22.371C24.8795 22.8008 25.583 22.8008 26.0128 22.371L26.3722 22.0117C26.802 21.5818 26.802 20.8785 26.3722 20.4487L9.55043 3.62694C9.12057 3.19711 8.41712 3.19711 7.98727 3.62694Z" fill="#FFF9FC"/>
</g>
<circle cx="43" cy="10" r="3" fill="#FFF9FC"/>
<circle cx="6" cy="35" r="2" fill="#FFF9FC"/>
<circle cx="143" cy="40" r="2" fill="#FFF9FC"/>
<circle cx="1" cy="43" r="1" fill="#FFF9FC"/>
<circle cx="106" cy="7.99902" r="3" fill="#FFF9FC"/>
<path d="M31.5 37.5C14.3 37.5 8 49.1667 7 55H141.5C136.7 42.2001 125.167 38.6667 120 38.5C118.4 28.5 109 26.3333 104.5 26.5C99.7 10.5 84.5 5.50003 77.5 5.00005C55.5 3.80005 47.3333 19.8334 46 28C36.4 28.4 32.3333 34.5 31.5 37.5Z" fill="#FFF9FC"/>
<defs>
<clipPath id="clip0_1636_9283">
<rect width="13" height="13" fill="white" transform="translate(128 16)"/>
</clipPath>
<clipPath id="clip1_1636_9283">
<rect width="26" height="26" fill="white" transform="translate(4 -0.000976562)"/>
</clipPath>
</defs>
</svg>
