<svg width="20" height="20" viewBox="0 0 20 20" fill="none" xmlns="http://www.w3.org/2000/svg">
<path fill-rule="evenodd" clip-rule="evenodd" d="M10.4937 18.1712L10.4953 18.1701L10.4999 18.1667L10.5153 18.1552C10.5284 18.1455 10.5468 18.1316 10.5702 18.1138C10.6171 18.0781 10.6842 18.0263 10.7685 17.9595C10.937 17.8258 11.1751 17.6312 11.4595 17.3829C12.0271 16.8873 12.7854 16.1725 13.546 15.2959C15.0397 13.5745 16.6666 11.0877 16.6666 8.33332C16.6666 4.65143 13.6818 1.66666 9.99992 1.66666C6.31802 1.66666 3.33325 4.65143 3.33325 8.33332C3.33325 11.0877 4.96013 13.5745 6.45384 15.2959C7.21446 16.1725 7.97275 16.8873 8.54038 17.3829C8.82478 17.6312 9.06282 17.8258 9.23137 17.9595C9.31568 18.0263 9.38271 18.0781 9.4296 18.1138C9.45304 18.1316 9.47146 18.1455 9.48449 18.1552L9.49995 18.1667L9.50457 18.1701L9.50665 18.1717L9.99992 18.5334L10.4937 18.1712ZM9.99809 10.4167C11.1487 10.4167 12.0814 9.48392 12.0814 8.33332C12.0814 7.18273 11.1487 6.24999 9.99809 6.24999C8.84749 6.24999 7.91475 7.18273 7.91475 8.33332C7.91475 9.48392 8.84749 10.4167 9.99809 10.4167Z" fill="#121212"/>
</svg>
