<svg width="24" height="24" viewBox="0 0 24 24" fill="none" xmlns="http://www.w3.org/2000/svg">
<g id="arrow-down-contained-01">
<path id="Icon" d="M16.7756 11.1834C16.9877 11.0066 17.0164 10.6913 16.8396 10.4792C16.6628 10.2671 16.3475 10.2384 16.1354 10.4152L16.7756 11.1834ZM12.2128 14.3349L11.8927 14.719C12.0782 14.8735 12.3475 14.8735 12.5329 14.719L12.2128 14.3349ZM8.29024 10.4152C8.07811 10.2384 7.76282 10.2671 7.58604 10.4792C7.40926 10.6913 7.43792 11.0066 7.65006 11.1834L8.29024 10.4152ZM16.1354 10.4152L11.8927 13.9508L12.5329 14.719L16.7756 11.1834L16.1354 10.4152ZM12.5329 13.9508L8.29024 10.4152L7.65006 11.1834L11.8927 14.719L12.5329 13.9508ZM21.1 11.9999C21.1 17.0257 17.0258 21.0999 12 21.0999V22.0999C17.5781 22.0999 22.1 17.578 22.1 11.9999H21.1ZM12 21.0999C6.97423 21.0999 2.90002 17.0257 2.90002 11.9999H1.90002C1.90002 17.578 6.42195 22.0999 12 22.0999V21.0999ZM2.90002 11.9999C2.90002 6.97411 6.97423 2.8999 12 2.8999V1.8999C6.42195 1.8999 1.90002 6.42183 1.90002 11.9999H2.90002ZM12 2.8999C17.0258 2.8999 21.1 6.97411 21.1 11.9999H22.1C22.1 6.42183 17.5781 1.8999 12 1.8999V2.8999Z" fill="#1E1E1E"/>
</g>
</svg>
