<svg width="26" height="27" viewBox="0 0 26 27" fill="none" xmlns="http://www.w3.org/2000/svg">
<g id="Group 4764">
<circle id="Ellipse 342" cx="13" cy="13.5" r="13" fill="#B25CF9"/>
<circle id="Ellipse 341" cx="13.0962" cy="13.4999" r="11.25" stroke="white" stroke-width="1.5"/>
<path id="Vector" d="M16.272 15.7356L16.8989 14.6384C17.1409 14.8364 17.4214 14.9986 17.7404 15.1251C18.0594 15.2461 18.3701 15.3066 18.6726 15.3066C18.8541 15.3066 19.0053 15.2846 19.1263 15.2406C19.2528 15.1966 19.3491 15.1389 19.4151 15.0674C19.4811 14.9959 19.5141 14.9161 19.5141 14.8281C19.5141 14.7511 19.4838 14.6714 19.4233 14.5889C19.3683 14.5064 19.2638 14.4212 19.1098 14.3332C18.9613 14.2452 18.7413 14.1544 18.4499 14.0609C17.9989 13.9124 17.6332 13.7447 17.3527 13.5577C17.0777 13.3652 16.8769 13.1562 16.7504 12.9307C16.624 12.7053 16.5607 12.4688 16.5607 12.2213C16.5607 11.9188 16.6405 11.6411 16.7999 11.3881C16.9649 11.1351 17.2069 10.9343 17.5259 10.7859C17.8449 10.6319 18.2381 10.5549 18.7056 10.5549C19.0796 10.5549 19.4508 10.6154 19.8193 10.7364C20.1933 10.8518 20.5068 10.9976 20.7597 11.1736L20.174 12.2213C19.9485 12.0618 19.701 11.9325 19.4316 11.8335C19.1621 11.7291 18.8843 11.6768 18.5984 11.6768C18.3674 11.6768 18.1914 11.7208 18.0704 11.8088C17.9494 11.8968 17.8889 11.9985 17.8889 12.114C17.8889 12.1965 17.9191 12.2763 17.9796 12.3533C18.0456 12.4303 18.1529 12.5073 18.3014 12.5843C18.4554 12.6613 18.6616 12.7437 18.9201 12.8317C19.3876 12.9857 19.7643 13.159 20.0503 13.3515C20.3363 13.5385 20.5452 13.7474 20.6772 13.9784C20.8092 14.2039 20.8752 14.4569 20.8752 14.7374C20.8752 15.0399 20.79 15.3204 20.6195 15.5789C20.449 15.8373 20.1905 16.0463 19.844 16.2058C19.4976 16.3653 19.0603 16.4451 18.5324 16.4451C18.2739 16.4451 18.0154 16.4148 17.7569 16.3543C17.4984 16.2993 17.2454 16.2196 16.9979 16.1151C16.7504 16.0106 16.5085 15.8841 16.272 15.7356Z" fill="white"/>
<path id="Vector_2" d="M10.6323 14.0774V10.6539H11.9523V13.9124C11.9523 14.2259 11.999 14.4817 12.0925 14.6796C12.186 14.8776 12.3125 15.0261 12.472 15.1251C12.6315 15.2186 12.813 15.2654 13.0164 15.2654C13.2199 15.2654 13.4014 15.2186 13.5609 15.1251C13.7204 15.0261 13.8469 14.8776 13.9404 14.6796C14.0339 14.4817 14.0806 14.2259 14.0806 13.9124V10.6539H15.3676V14.0774C15.3676 14.5834 15.2631 15.0124 15.0541 15.3644C14.8451 15.7163 14.5619 15.9858 14.2044 16.1728C13.8469 16.3543 13.4454 16.4451 13 16.4451C12.56 16.4451 12.1585 16.3543 11.7955 16.1728C11.438 15.9858 11.1548 15.7163 10.9458 15.3644C10.7368 15.0124 10.6323 14.5834 10.6323 14.0774Z" fill="white"/>
<path id="Vector_3" d="M5.31714 16.3461V10.6539H7.43728C7.80026 10.6539 8.12474 10.7171 8.41073 10.8436C8.70221 10.9646 8.93045 11.1378 9.09544 11.3633C9.26593 11.5888 9.35118 11.861 9.35118 12.18C9.35118 12.4495 9.29068 12.6832 9.16969 12.8812C9.04869 13.0737 8.8837 13.2305 8.67471 13.3515C8.9662 13.4835 9.19169 13.6732 9.35118 13.9207C9.51617 14.1627 9.59866 14.4487 9.59866 14.7786C9.59866 15.1031 9.51067 15.3836 9.33468 15.6201C9.16419 15.8566 8.93045 16.0381 8.63347 16.1646C8.34198 16.2856 8.012 16.3461 7.64352 16.3461H5.31714ZM6.63707 15.2406H7.51977C7.73976 15.2406 7.91575 15.1884 8.04775 15.0839C8.18524 14.9739 8.25399 14.8144 8.25399 14.6054C8.25399 14.3964 8.18524 14.2397 8.04775 14.1352C7.91575 14.0252 7.73976 13.9702 7.51977 13.9702H6.63707V15.2406ZM6.63707 12.9472H7.35478C7.56377 12.9472 7.73151 12.8977 7.85801 12.7987C7.9845 12.6942 8.04775 12.5458 8.04775 12.3533C8.04775 12.1608 7.9845 12.015 7.85801 11.916C7.73151 11.8115 7.56377 11.7593 7.35478 11.7593H6.63707V12.9472Z" fill="white"/>
</g>
</svg>
