<svg width="28" height="28" viewBox="0 0 28 28" fill="none" xmlns="http://www.w3.org/2000/svg">
<g id="target-01">
<path id="Icon" d="M13.5 6.2C13.5 6.47614 13.7239 6.7 14 6.7C14.2761 6.7 14.5 6.47614 14.5 6.2H13.5ZM14.5 1C14.5 0.723858 14.2761 0.5 14 0.5C13.7239 0.5 13.5 0.723858 13.5 1H14.5ZM13.5 27C13.5 27.2761 13.7239 27.5 14 27.5C14.2761 27.5 14.5 27.2761 14.5 27H13.5ZM14.5 21.8C14.5 21.5239 14.2761 21.3 14 21.3C13.7239 21.3 13.5 21.5239 13.5 21.8H14.5ZM21.8 13.5C21.5239 13.5 21.3 13.7239 21.3 14C21.3 14.2761 21.5239 14.5 21.8 14.5V13.5ZM27 14.5C27.2761 14.5 27.5 14.2761 27.5 14C27.5 13.7239 27.2761 13.5 27 13.5V14.5ZM1 13.5C0.723858 13.5 0.5 13.7239 0.5 14C0.5 14.2761 0.723858 14.5 1 14.5V13.5ZM6.2 14.5C6.47614 14.5 6.7 14.2761 6.7 14C6.7 13.7239 6.47614 13.5 6.2 13.5V14.5ZM23.9 13.9999C23.9 19.4675 19.4676 23.8999 14 23.8999V24.8999C20.0199 24.8999 24.9 20.0198 24.9 13.9999H23.9ZM14 23.8999C8.53238 23.8999 4.1 19.4675 4.1 13.9999H3.1C3.1 20.0198 7.9801 24.8999 14 24.8999V23.8999ZM4.1 13.9999C4.1 8.53231 8.53238 4.09993 14 4.09993V3.09993C7.9801 3.09993 3.1 7.98002 3.1 13.9999H4.1ZM14 4.09993C19.4676 4.09993 23.9 8.53231 23.9 13.9999H24.9C24.9 7.98002 20.0199 3.09993 14 3.09993V4.09993ZM14.5 6.2V1H13.5V6.2H14.5ZM14.5 27V21.8H13.5V27H14.5ZM21.8 14.5H27V13.5H21.8V14.5ZM1 14.5H6.2V13.5H1V14.5ZM17.4 14C17.4 15.8778 15.8778 17.4 14 17.4V18.4C16.4301 18.4 18.4 16.4301 18.4 14H17.4ZM14 17.4C12.1222 17.4 10.6 15.8778 10.6 14H9.6C9.6 16.4301 11.5699 18.4 14 18.4V17.4ZM10.6 14C10.6 12.1222 12.1222 10.6 14 10.6V9.6C11.5699 9.6 9.6 11.5699 9.6 14H10.6ZM14 10.6C15.8778 10.6 17.4 12.1222 17.4 14H18.4C18.4 11.5699 16.4301 9.6 14 9.6V10.6Z" fill="#1E1E1E"/>
</g>
</svg>
