<svg width="40" height="40" viewBox="0 0 40 40" fill="none" xmlns="http://www.w3.org/2000/svg">
<g id="TabIcon">
<g id="Group 3467">
<path id="Exclude" d="M19.9998 36.5275C15.7077 35.5781 12.1645 33.4148 9.36999 30.0377C6.57552 26.6606 5.17828 22.9105 5.17828 18.7874V8.85941L19.9998 3.97681L34.8213 8.85941V18.7874C34.8213 22.9105 33.424 26.6606 30.6296 30.0377C27.8351 33.4148 24.2918 35.5781 19.9998 36.5275Z" fill="#2AB1EC"/>
<path id="Vector" d="M16.4387 14.4226C15.9792 14.4226 15.5858 14.2557 15.2585 13.9219C14.9313 13.5881 14.7676 13.1868 14.7676 12.7181C14.7676 12.2494 14.9313 11.8481 15.2585 11.5143C15.5858 11.1805 15.9792 11.0136 16.4387 11.0136C16.8982 11.0136 17.2916 11.1805 17.6189 11.5143C17.9461 11.8481 18.1098 12.2494 18.1098 12.7181C18.1098 13.1868 17.9461 13.5881 17.6189 13.9219C17.2916 14.2557 16.8982 14.4226 16.4387 14.4226ZM25.2118 18.6837C24.8636 18.6837 24.5677 18.5595 24.324 18.3109C24.0803 18.0623 23.9585 17.7605 23.9585 17.4054C23.9585 17.0503 24.0803 16.7485 24.324 16.4999C24.5677 16.2513 24.8636 16.127 25.2118 16.127C25.5599 16.127 25.8558 16.2513 26.0995 16.4999C26.3432 16.7485 26.4651 17.0503 26.4651 17.4054C26.4651 17.7605 26.3432 18.0623 26.0995 18.3109C25.8558 18.5595 25.5599 18.6837 25.2118 18.6837ZM14.7676 28.0583V22.0927H13.5143V16.9793C13.5143 16.5105 13.678 16.1093 14.0052 15.7755C14.3325 15.4417 14.7259 15.2748 15.1854 15.2748H17.692C17.9984 15.2748 18.2769 15.3494 18.5275 15.4985C18.7782 15.6476 18.9801 15.8572 19.1333 16.127L22.1203 21.3896L22.9767 20.0899C23.0881 19.9195 23.2378 19.7845 23.4258 19.6851C23.6138 19.5857 23.8123 19.536 24.0211 19.536H26.4651C26.8132 19.536 27.1091 19.6603 27.3528 19.9088C27.5965 20.1574 27.7184 20.4592 27.7184 20.8143V23.7972H26.8828V28.0583H23.5407V22.0075L22.8932 22.9449H21.055L18.9453 19.1951V28.0583H14.7676Z" fill="white"/>
</g>
</g>
</svg>
