<svg width="51" height="50" viewBox="0 0 51 50" fill="none" xmlns="http://www.w3.org/2000/svg">
<g id="Frame 3466339">
<g id="Group 4771">
<rect id="Rectangle 5630" x="0.5" width="50" height="50" rx="6" fill="#F52D2D"/>
<path id="Union" fill-rule="evenodd" clip-rule="evenodd" d="M18.3099 17.7458L20.3918 12.1392H31.6121L33.694 17.7458H18.3099ZM33.245 10.7911L35.8275 17.7458L36.5618 19.7234H36.5745V30.2316H36.5598V31.9904C36.5598 32.5427 36.1121 32.9904 35.5598 32.9904H33.5948C33.0425 32.9904 32.5948 32.5427 32.5948 31.9904V30.2316H19.401V31.9904C19.401 32.5427 18.9532 32.9904 18.401 32.9904H16.4359C15.8836 32.9904 15.4359 32.5427 15.4359 31.9904V30.2316H15.4254V19.7234H15.4422L16.1765 17.7458L18.7589 10.7911C18.9045 10.3992 19.2784 10.1392 19.6964 10.1392H32.3075C32.7256 10.1392 33.0995 10.3992 33.245 10.7911Z" fill="white"/>
<circle id="Ellipse 14" cx="20.7696" cy="24.6484" r="1.37644" fill="#F52D2D"/>
<circle id="Ellipse 15" cx="31.3539" cy="24.6484" r="1.37644" fill="#F52D2D"/>
<path id="Vector 206 (Stroke)" fill-rule="evenodd" clip-rule="evenodd" d="M15.2454 27.6577H36.684L40.6148 40.8513H10.0593L15.2454 27.6577ZM16.5867 29.1138L13.296 38.3952H37.3643L35.2542 29.1138H16.5867Z" fill="white"/>
</g>
</g>
</svg>
