<svg width="20" height="20" viewBox="0 0 20 20" fill="none" xmlns="http://www.w3.org/2000/svg">
<g id="eye-open">
<path id="Icon (Stroke)" fill-rule="evenodd" clip-rule="evenodd" d="M3.03148 10.088C3.03721 10.1023 3.04338 10.1175 3.05 10.1336C3.10512 10.2675 3.19119 10.4624 3.31219 10.6981C3.55469 11.1706 3.93463 11.8015 4.48251 12.4339C5.57322 13.6929 7.32277 14.954 10.0084 14.9991C12.6829 15.044 14.4252 13.7895 15.5147 12.5093C16.0622 11.866 16.4423 11.2179 16.6852 10.7305C16.8064 10.4873 16.8926 10.2857 16.9479 10.1468C16.9558 10.1269 16.9631 10.1084 16.9697 10.0912C16.9631 10.0731 16.9558 10.0535 16.9478 10.0324C16.8942 9.89084 16.8102 9.68519 16.6916 9.43687C16.4539 8.93912 16.08 8.27638 15.5364 7.61563C14.4545 6.30064 12.7106 5.00024 10 5.00024C7.28946 5.00024 5.54551 6.30064 4.46368 7.61563C3.92007 8.27638 3.54613 8.93912 3.30841 9.43687C3.18982 9.68519 3.10589 9.89084 3.05223 10.0324C3.04472 10.0523 3.03781 10.0708 3.03148 10.088ZM17.5 10.0957C17.9783 9.9498 17.9782 9.94956 17.9781 9.9493L17.9779 9.94866L17.9774 9.94701L17.9759 9.94217L17.9709 9.9265C17.9667 9.91343 17.9607 9.89518 17.9529 9.87209C17.9372 9.82591 17.9141 9.76031 17.8829 9.67806C17.8206 9.51366 17.726 9.28217 17.594 9.00592C17.3307 8.45453 16.9159 7.7184 16.3086 6.9803C15.0888 5.49757 13.0827 4.00024 10 4.00024C6.91733 4.00024 4.91128 5.49757 3.69143 6.9803C3.08419 7.7184 2.66937 8.45453 2.40604 9.00592C2.2741 9.28217 2.17943 9.51366 2.11713 9.67806C2.08596 9.76031 2.06284 9.82591 2.04716 9.87209C2.03932 9.89518 2.03333 9.91343 2.02913 9.9265L2.02415 9.94217L2.02264 9.94701L2.02213 9.94866L2.02194 9.9493C2.02186 9.94956 2.02178 9.9498 2.50003 10.0957L2.02178 9.9498L1.9751 10.1029L2.02595 10.2546L2.50003 10.0957C2.02595 10.2546 2.02603 10.2548 2.02612 10.2551L2.02633 10.2557L2.02688 10.2573L2.02849 10.262L2.03374 10.2771C2.03816 10.2897 2.04443 10.3071 2.05261 10.3292C2.06897 10.3733 2.09301 10.4358 2.12528 10.5142C2.18978 10.6709 2.28739 10.8914 2.42254 11.1548C2.69237 11.6804 3.11471 12.3823 3.72669 13.0887C4.95568 14.5073 6.95613 15.948 9.99164 15.9989C13.0383 16.0501 15.046 14.6029 16.2762 13.1574C16.8886 12.4379 17.3108 11.7171 17.5802 11.1765C17.7152 10.9056 17.8126 10.6783 17.8769 10.5168C17.9091 10.436 17.9331 10.3715 17.9493 10.3261C17.9575 10.3034 17.9637 10.2854 17.9681 10.2725L17.9733 10.2571L17.9749 10.2523L17.9754 10.2507L17.9756 10.2501C17.9757 10.2498 17.9758 10.2496 17.5 10.0957ZM17.5 10.0957L17.9758 10.2496L18.0241 10.1001L17.9783 9.9498L17.5 10.0957ZM10 8.65049C9.24017 8.65049 8.62503 9.26573 8.62503 10.0236C8.62503 10.7815 9.24017 11.3968 10 11.3968C10.7599 11.3968 11.375 10.7815 11.375 10.0236C11.375 9.26573 10.7599 8.65049 10 8.65049ZM7.62503 10.0236C7.62503 8.71252 8.68882 7.65049 10 7.65049C11.3112 7.65049 12.375 8.71252 12.375 10.0236C12.375 11.3348 11.3112 12.3968 10 12.3968C8.68882 12.3968 7.62503 11.3348 7.62503 10.0236Z" fill="#1E1E1E"/>
</g>
</svg>
