<svg width="24" height="24" viewBox="0 0 24 24" fill="none" xmlns="http://www.w3.org/2000/svg">
<path d="M22 14.006C22.0003 14.7938 21.8452 15.574 21.5437 16.3018C21.2423 17.0297 20.8002 17.6909 20.243 18.2478C19.6857 18.8047 19.0242 19.2463 18.2961 19.5473C17.5681 19.8483 16.7878 20.0028 16 20.002L16.857 18.289M2 10.009C1.99974 9.22118 2.15478 8.44104 2.45627 7.71319C2.75775 6.98535 3.19976 6.32407 3.75702 5.76719C4.31427 5.2103 4.97584 4.76873 5.70389 4.46773C6.43194 4.16674 7.21218 4.01221 8 4.013L7.143 5.726M10.966 5.524H21.772M2 16.532H12.807M13.466 10.994H19.5C20.1627 10.994 20.7983 10.7309 21.2671 10.2625C21.7358 9.79407 21.9995 9.15869 22 8.496V4.496C21.9989 3.83365 21.7351 3.19879 21.2664 2.73082C20.7976 2.26284 20.1623 2 19.5 2H13.466C12.8033 2 12.1677 2.26312 11.6989 2.73153C11.2302 3.19993 10.9665 3.83531 10.966 4.498V8.498C10.9668 9.16052 11.2305 9.79564 11.6993 10.2638C12.168 10.732 12.8035 10.994 13.466 10.994ZM4.5 22.002H10.534C11.1969 22.002 11.8326 21.7387 12.3014 21.2701C12.7702 20.8015 13.0337 20.1659 13.034 19.503V15.504C13.0335 14.8413 12.7698 14.2059 12.3011 13.7375C11.8323 13.2691 11.1967 13.006 10.534 13.006H4.5C3.83731 13.006 3.20172 13.2691 2.73294 13.7375C2.26416 14.2059 2.00053 14.8413 2 15.504V19.504C2.00053 20.1667 2.26416 20.8021 2.73294 21.2705C3.20172 21.7389 3.83731 22.002 4.5 22.002Z" stroke="#121212" stroke-width="2" stroke-linecap="round" stroke-linejoin="round"/>
</svg>
