<svg width="18" height="18" viewBox="0 0 18 18" fill="none" xmlns="http://www.w3.org/2000/svg">
<g id="Frame 3494">
<g id="Group 3484">
<path id="Vector 12 (Stroke)" fill-rule="evenodd" clip-rule="evenodd" d="M15.5395 16.5C15.6953 17.4457 16 17.5 16 17.5H4C2.89543 17.5 2 16.6046 2 15.5V2.5C2 1.94772 2.44771 1.5 3 1.5H14.45C15.0023 1.5 15.45 1.94772 15.45 2.5V15.1756C15.45 15.7449 15.486 16.1751 15.5395 16.5ZM14.5283 16.5C14.4778 16.1324 14.45 15.696 14.45 15.1756V2.5L3 2.5V15.5C3 16.0523 3.44772 16.5 4 16.5H14.5283Z" fill="#9D9D9D"/>
<path id="Vector 13 (Stroke)" fill-rule="evenodd" clip-rule="evenodd" d="M16.5 10H15.0381V9H16.5C17.3284 9 18 9.67157 18 10.5V15.5C18 16.6046 17.1046 17.5 16 17.5H15V16.5H16C16.5523 16.5 17 16.0523 17 15.5V10.5C17 10.2239 16.7761 10 16.5 10Z" fill="#9D9D9D"/>
<path id="Vector 14 (Stroke)" fill-rule="evenodd" clip-rule="evenodd" d="M4.3501 5.99998C4.3501 5.64099 4.64111 5.34998 5.0001 5.34998H12.0001C12.3591 5.34998 12.6501 5.64099 12.6501 5.99998C12.6501 6.35896 12.3591 6.64998 12.0001 6.64998H5.0001C4.64111 6.64998 4.3501 6.35896 4.3501 5.99998Z" fill="#9D9D9D"/>
<path id="Vector 15 (Stroke)" fill-rule="evenodd" clip-rule="evenodd" d="M4.3501 9.37498C4.3501 9.01599 4.64111 8.72498 5.0001 8.72498H12.0001C12.3591 8.72498 12.6501 9.01599 12.6501 9.37498C12.6501 9.73396 12.3591 10.025 12.0001 10.025H5.0001C4.64111 10.025 4.3501 9.73396 4.3501 9.37498Z" fill="#9D9D9D"/>
<path id="Vector 16 (Stroke)" fill-rule="evenodd" clip-rule="evenodd" d="M4.3501 12.75C4.3501 12.391 4.64111 12.1 5.0001 12.1H10.0001C10.3591 12.1 10.6501 12.391 10.6501 12.75C10.6501 13.109 10.3591 13.4 10.0001 13.4H5.0001C4.64111 13.4 4.3501 13.109 4.3501 12.75Z" fill="#9D9D9D"/>
</g>
</g>
</svg>
