<svg width="40" height="40" viewBox="0 0 40 40" fill="none" xmlns="http://www.w3.org/2000/svg">
<path d="M13.2004 25.277C12.2614 24.5647 10.9132 24.8148 10.292 25.8164L5.21753 33.999H33.2175L23.7947 20.5378C22.9615 19.3476 21.1775 19.4147 20.4362 20.6641L16.3028 27.6303L13.2004 25.277Z" stroke="white" stroke-width="4" stroke-linejoin="round"/>
<path d="M10.1243 21.0969C7.70038 18.6467 6.28643 17.2173 4.65912 15.1208C3.45473 13.2814 2.85254 11.579 2.85254 10.0135C2.85254 7.66536 3.5835 5.79465 5.04543 4.4014C6.50736 3.00815 8.20032 2.31152 10.1243 2.31152C12.0483 2.31152 13.7413 3.00815 15.2032 4.4014C16.6651 5.79465 17.3961 7.66536 17.3961 10.0135C17.3961 11.579 16.7939 13.2814 15.5895 15.1208C14.1642 17.0131 12.3462 18.6467 10.1243 21.0969Z" fill="#297E1E"/>
<circle cx="10.1242" cy="9.5831" r="2.42392" fill="white"/>
</svg>
