<svg width="24" height="24" viewBox="0 0 24 24" fill="none" xmlns="http://www.w3.org/2000/svg">
<path d="M14.3994 8.39941C14.7314 8.06747 15.2686 8.06747 15.6006 8.39941C15.9325 8.73136 15.9325 9.26864 15.6006 9.60059L13.2012 12L15.6006 14.3994L15.6592 14.4639C15.9314 14.7977 15.9118 15.2894 15.6006 15.6006C15.2894 15.9118 14.7977 15.9314 14.4639 15.6592L14.3994 15.6006L12 13.2012L9.60059 15.6006C9.26864 15.9325 8.73136 15.9325 8.39941 15.6006C8.06747 15.2686 8.06747 14.7314 8.39941 14.3994L10.7988 12L8.39941 9.60059L8.34082 9.53613C8.06861 9.20228 8.08825 8.71058 8.39941 8.39941C8.71058 8.08825 9.20228 8.06861 9.53613 8.34082L9.60059 8.39941L12 10.7988L14.3994 8.39941Z" fill="#DC2626"/>
<path fill-rule="evenodd" clip-rule="evenodd" d="M12 2.15039C17.44 2.15039 21.8496 6.56 21.8496 12C21.8496 17.44 17.44 21.8496 12 21.8496C6.56 21.8496 2.15039 17.44 2.15039 12C2.15039 6.56 6.56 2.15039 12 2.15039ZM12 3.84961C7.49888 3.84961 3.84961 7.49888 3.84961 12C3.84961 16.5011 7.49888 20.1504 12 20.1504C16.5011 20.1504 20.1504 16.5011 20.1504 12C20.1504 7.49888 16.5011 3.84961 12 3.84961Z" fill="#DC2626"/>
</svg>
