<svg width="30" height="30" viewBox="0 0 30 30" fill="none" xmlns="http://www.w3.org/2000/svg">
<g id="clock-01">
<path id="Vector" fill-rule="evenodd" clip-rule="evenodd" d="M11.4851 28.9859C6.36588 27.5939 3.43107 21.7384 5.87428 17.4143C7.43905 14.6448 8.60163 11.9571 7.18455 8.66852C8.47796 8.82307 9.20566 9.45015 10.2416 10.3343C9.63489 5.3752 11.237 1.83094 16.323 0C14.9901 3.97335 17.4958 6.40404 19.5757 8.98809C21.9705 11.9633 24.0288 15.0978 24.7903 18.893C25.7226 23.5398 23.5054 27.3464 18.9489 28.8615C18.7373 28.9317 18.5065 28.9471 18.2203 29C20.8807 24.7676 21.1327 22.2937 19.1393 20.1621C18.5902 20.9074 18.2813 21.8036 17.5883 22.4439C17.2417 22.7641 16.8772 23.1204 16.3521 22.8625C15.8226 22.6022 15.6309 22.1009 15.7714 21.5755C15.9484 20.9136 16.2346 20.2786 16.4851 19.6362C17.2982 17.5511 16.8469 16.1712 14.7532 14.7068C15.1632 16.942 13.9711 18.4433 12.594 19.8656C10.921 21.5935 9.65492 23.4453 10.1613 26.0265C10.3777 27.1296 11.1751 27.9357 11.485 28.9859L11.4851 28.9859Z" fill="#2AB1EC"/>
</g>
</svg>
