<svg width="16" height="19" viewBox="0 0 16 19" fill="none" xmlns="http://www.w3.org/2000/svg">
<g id="Group 3472">
<path id="Union" fill-rule="evenodd" clip-rule="evenodd" d="M12.6283 2.5H3.3532L1.5238 6.71567H14.4577L12.6283 2.5ZM15.5478 6.71567L13.5456 2.10192C13.387 1.73646 13.0266 1.5 12.6283 1.5H3.3532C2.95482 1.5 2.59444 1.73646 2.43585 2.10192L0.433706 6.71567L-0.000244141 7.71567H0.0090332V14.9673V15.4281V15.4673V16.5C0.0090332 17.0523 0.456748 17.5 1.00903 17.5H2.00603C2.55831 17.5 3.00603 17.0523 3.00603 16.5V15.4673H13.0027V16.5C13.0027 17.0523 13.4504 17.5 14.0027 17.5H14.9997C15.552 17.5 15.9997 17.0523 15.9997 16.5V15.4673H16.0003V14.9673V7.71567H15.9817L15.5478 6.71567ZM15 14.4673H15.0003V7.71567H15V14.4673Z" fill="#1E1E1E"/>
<circle id="Ellipse 14" cx="4" cy="10.5" r="1" fill="white"/>
<circle id="Ellipse 15" cx="12" cy="10.5" r="1" fill="white"/>
</g>
</svg>
