<svg width="23" height="28" viewBox="0 0 23 28" fill="none" xmlns="http://www.w3.org/2000/svg">
<path d="M11.5 27.1875C8.16979 26.4188 5.42057 24.6674 3.25234 21.9331C1.08411 19.1989 0 16.1627 0 12.8245V4.78644L11.5 0.833313L23 4.78644V12.8245C23 16.1627 21.9159 19.1989 19.7477 21.9331C17.5794 24.6674 14.8302 26.4188 11.5 27.1875Z" fill="#2AB1EC"/>
<path d="M8.11693 9.29052C7.74487 9.29052 7.42636 9.15539 7.16141 8.88514C6.89646 8.61489 6.76398 8.29002 6.76398 7.91052C6.76398 7.53102 6.89646 7.20614 7.16141 6.93589C7.42636 6.66564 7.74487 6.53052 8.11693 6.53052C8.48899 6.53052 8.8075 6.66564 9.07245 6.93589C9.3374 7.20614 9.46988 7.53102 9.46988 7.91052C9.46988 8.29002 9.3374 8.61489 9.07245 8.88514C8.8075 9.15539 8.48899 9.29052 8.11693 9.29052ZM15.2199 12.7405C14.9381 12.7405 14.6985 12.6399 14.5012 12.4386C14.3039 12.2374 14.2052 11.993 14.2052 11.7055C14.2052 11.418 14.3039 11.1736 14.5012 10.9724C14.6985 10.7711 14.9381 10.6705 15.2199 10.6705C15.5018 10.6705 15.7414 10.7711 15.9387 10.9724C16.136 11.1736 16.2346 11.418 16.2346 11.7055C16.2346 11.993 16.136 12.2374 15.9387 12.4386C15.7414 12.6399 15.5018 12.7405 15.2199 12.7405ZM6.76398 20.3305V15.5005H5.74927V11.3605C5.74927 10.981 5.88174 10.6561 6.1467 10.3859C6.41165 10.1156 6.73016 9.98052 7.10222 9.98052H9.13164C9.37968 9.98052 9.60517 10.0409 9.80812 10.1616C10.0111 10.2824 10.1745 10.452 10.2986 10.6705L12.717 14.9313L13.4103 13.879C13.5005 13.741 13.6217 13.6318 13.774 13.5513C13.9262 13.4708 14.0868 13.4305 14.2559 13.4305H16.2346C16.5165 13.4305 16.7561 13.5311 16.9534 13.7324C17.1507 13.9336 17.2493 14.178 17.2493 14.4655V16.8805H16.5729V20.3305H13.867V15.4315L13.3427 16.1905H11.8545L10.1464 13.1545V20.3305H6.76398Z" fill="white"/>
</svg>
