<svg width="40" height="40" viewBox="0 0 40 40" fill="none" xmlns="http://www.w3.org/2000/svg">
<g id="Group 4786">
<g id="Group 3485">
<g id="Group 3477">
<rect id="Rectangle 5575" x="4.47812" y="13.7326" width="21.0563" height="17.0501" rx="2" fill="#B25CF9"/>
<path id="Rectangle 5576" d="M27.64 17.4074C27.64 17.0227 27.8607 16.6722 28.2075 16.5058L33.667 13.8869C34.3308 13.5685 35.0995 14.0523 35.0995 14.7886V29.7267C35.0995 30.463 34.3308 30.9468 33.667 30.6284L28.2075 28.0095C27.8607 27.8431 27.64 27.4926 27.64 27.1079V17.4074Z" fill="#B25CF9"/>
<path id="Polygon 1" d="M18.64 22.6418C18.8799 22.4419 18.8799 22.0734 18.64 21.8735L13.5272 17.6129C13.2015 17.3415 12.7071 17.5731 12.7071 17.997L12.7071 26.5183C12.7071 26.9422 13.2015 27.1738 13.5272 26.9024L18.64 22.6418Z" fill="white"/>
</g>
<rect id="Rectangle 5577" x="5.88208" y="8.68628" width="18.2488" height="2.71401" rx="1" fill="#B25CF9"/>
</g>
</g>
</svg>
