<svg width="28" height="28" viewBox="0 0 28 28" fill="none" xmlns="http://www.w3.org/2000/svg">
<g id="Group 3505">
<g id="Group 3504">
<path id="Line 15 (Stroke)" fill-rule="evenodd" clip-rule="evenodd" d="M11.2157 20.715C11.2045 20.7029 11.1786 20.6787 11.1244 20.651C7.66144 18.8779 8.87796 13.6526 12.768 13.5915L23.3377 13.4253C24.3041 13.4101 25.0998 14.1812 25.115 15.1476C25.1302 16.1139 24.3591 16.9097 23.3927 16.9249L12.8231 17.091C12.7622 17.092 12.7283 17.1022 12.7129 17.1081C12.6969 17.1142 12.6851 17.1217 12.6743 17.131C12.65 17.1521 12.6149 17.1988 12.5977 17.2729C12.5804 17.347 12.5913 17.4044 12.6037 17.434C12.6093 17.4472 12.6166 17.459 12.6283 17.4716C12.6395 17.4837 12.6654 17.5078 12.7196 17.5356C16.1828 19.3088 14.9658 24.5345 11.0754 24.5951L5.77174 24.6777C4.80536 24.6928 4.00975 23.9216 3.99469 22.9552C3.97964 21.9888 4.75084 21.1932 5.71722 21.1781L11.0209 21.0955C11.0818 21.0946 11.1156 21.0843 11.1311 21.0784C11.1471 21.0723 11.1589 21.0649 11.1697 21.0555C11.194 21.0345 11.2291 20.9878 11.2463 20.9137C11.2636 20.8396 11.2527 20.7821 11.2403 20.7526C11.2347 20.7394 11.2274 20.7275 11.2157 20.715Z" fill="white"/>
<g id="Group 3503">
<path id="Vector" d="M19.0902 15.1752C17.3935 13.46 16.4037 12.4595 15.2646 10.9919C14.4215 9.70431 14 8.51262 14 7.4168C14 5.77308 14.5117 4.46358 15.535 3.4883C16.5584 2.51303 17.7434 2.02539 19.0902 2.02539C20.437 2.02539 21.6221 2.51303 22.6454 3.4883C23.6688 4.46358 24.1805 5.77308 24.1805 7.4168C24.1805 8.51262 23.7589 9.70431 22.9159 10.9919C21.9181 12.3165 20.6456 13.46 19.0902 15.1752Z" fill="#FE42A6"/>
<circle id="Ellipse 14" cx="19.0902" cy="7.11569" r="1.69675" fill="white"/>
</g>
</g>
</g>
</svg>
