<svg width="20" height="25" viewBox="0 0 20 25" fill="none" xmlns="http://www.w3.org/2000/svg">
<g id="Group 3495">
<path id="Union" fill-rule="evenodd" clip-rule="evenodd" d="M1.8501 0.217773C1.29781 0.217773 0.850098 0.665489 0.850098 1.21777C0.850098 1.77006 1.29781 2.21777 1.8501 2.21777H5.8501V7.6875H7.8501V2.21777H11.8501C12.4024 2.21777 12.8501 1.77006 12.8501 1.21777C12.8501 0.665489 12.4024 0.217773 11.8501 0.217773H1.8501Z" fill="#FC8D2B"/>
<path id="Union_2" fill-rule="evenodd" clip-rule="evenodd" d="M16.7763 10.8008H15.7286V6.61035H16.7763V3.46777H18.8715V6.61035H19.9191V10.8008H18.8715V18.1338C18.8715 18.9678 18.5404 19.7676 17.9508 20.3564C17.3615 20.9463 16.5621 21.2773 15.7286 21.2773C14.8951 21.2773 14.0956 20.9463 13.5062 20.3564C12.9169 19.7676 12.5858 18.9678 12.5858 18.1338V13.9434H11.8501V22.2178H13.6001V24.2178H0.100098V22.2178H1.8501V8.21777C1.8501 7.66549 2.29781 7.21777 2.8501 7.21777H10.8501C11.4024 7.21777 11.8501 7.66549 11.8501 8.21777V11.8486H12.5858C13.1415 11.8486 13.6744 12.0693 14.0673 12.4619C14.4603 12.8555 14.681 13.3877 14.681 13.9434V18.1338C14.681 18.2568 14.7025 18.3779 14.7435 18.4912C14.7953 18.6338 14.8781 18.7656 14.9879 18.875C15.1842 19.0713 15.4508 19.1816 15.7286 19.1816C16.0065 19.1816 16.2728 19.0713 16.4694 18.875C16.6659 18.6787 16.7763 18.4121 16.7763 18.1338V10.8008Z" fill="#FC8D2B"/>
</g>
</svg>
