<svg width="30" height="30" viewBox="0 0 30 30" fill="none" xmlns="http://www.w3.org/2000/svg">
<g id="clock-01">
<g id="Vector">
<path d="M6.14442 17.7875L12.5759 16.567C12.559 16.4375 12.5421 16.3068 12.5256 16.1733C12.2443 13.9521 14.6954 -0.505753 7.80127 0.0136551C4.59765 0.254904 0.099746 4.33439 5.55393 16.4114C5.76741 16.8844 5.96279 17.3431 6.14442 17.7875Z" fill="#2AB1EC"/>
<path d="M6.89109 19.7296C8.47569 24.0729 8.90234 26.3809 12.4444 25.0615C13.8529 24.5364 13.5397 23.4771 12.8512 18.5985L6.89109 19.7296Z" fill="#2AB1EC"/>
<path d="M24.4223 21.1159L17.9361 20.2426C17.9458 20.1123 17.9558 19.9806 17.9655 19.8466C18.1302 17.6136 14.9241 3.3078 21.8358 3.45633C25.048 3.52551 29.7528 7.35763 24.9397 19.7106C24.7511 20.194 24.58 20.6627 24.4223 21.1159Z" fill="#2AB1EC"/>
<path d="M23.7784 23.0957C22.424 27.5177 22.1188 29.8456 18.5125 28.7177C17.0787 28.2693 17.3358 27.195 17.7675 22.2859L23.7784 23.0957Z" fill="#2AB1EC"/>
</g>
</g>
</svg>
