<svg width="14" height="18" viewBox="0 0 14 18" fill="none" xmlns="http://www.w3.org/2000/svg">
<g id="Group 3512">
<path id="Vector" d="M6.98578 17.2763C4.87984 15.156 3.60266 13.8486 2.1458 11.9822C1.02669 10.2762 0.5 8.74569 0.5 7.38C0.5 5.24325 1.16341 3.59054 2.45505 2.36525C3.7743 1.11377 5.28251 0.5 7 0.5C8.71749 0.5 10.2257 1.11377 11.5449 2.36525C12.8366 3.59054 13.5 5.24325 13.5 7.38C13.5 8.74648 12.9727 10.278 11.8523 11.9852C11.1874 12.8621 10.4273 13.6853 9.55762 14.5898C9.34031 14.8158 9.116 15.0471 8.88496 15.2852C8.29419 15.8942 7.65948 16.5485 6.98578 17.2763Z" stroke="#9D9D9D"/>
<circle id="Ellipse 14" cx="7.00244" cy="7" r="2" fill="#9D9D9D"/>
</g>
</svg>
