<svg width="23" height="18" viewBox="0 0 23 18" fill="none" xmlns="http://www.w3.org/2000/svg">
<rect x="0.850098" y="3.77832" width="15" height="14.2222" rx="2" fill="#B25CF9"/>
<path d="M17.3501 7.19964C17.3501 6.82395 17.5607 6.47996 17.8952 6.30908L21.3952 4.52141C22.0606 4.18157 22.8501 4.66484 22.8501 5.41197V16.3669C22.8501 17.114 22.0606 17.5973 21.3952 17.2575L17.8952 15.4698C17.5607 15.2989 17.3501 14.9549 17.3501 14.5792V7.19964Z" fill="#B25CF9"/>
<path d="M10.7896 11.2777C11.0359 11.0776 11.0359 10.7017 10.7896 10.5016L7.08243 7.48877C6.75569 7.22322 6.26709 7.45574 6.26709 7.87679L6.26709 13.9025C6.26709 14.3235 6.75569 14.556 7.08243 14.2905L10.7896 11.2777Z" fill="white"/>
<rect x="1.8501" width="13" height="2.03175" rx="1" fill="#B25CF9"/>
</svg>
