<svg width="111" height="51" viewBox="0 0 111 51" fill="none" xmlns="http://www.w3.org/2000/svg">
<path opacity="0.8" fill-rule="evenodd" clip-rule="evenodd" d="M72.1279 12.7715C72.1279 10.5623 73.9188 8.77148 76.1279 8.77148H106.518C108.727 8.77148 110.518 10.5623 110.518 12.7715V44.9789C110.518 46.0835 109.622 46.9789 108.518 46.9789H106.253V49.9995C106.253 50.5518 105.805 50.9995 105.253 50.9995H100.855C100.302 50.9995 99.8547 50.5518 99.8547 49.9995V46.9789H82.7918V49.9995C82.7918 50.5518 82.3441 50.9995 81.7918 50.9995H77.3935C76.8413 50.9995 76.3935 50.5518 76.3935 49.9995V46.9789H74.1279C73.0234 46.9789 72.1279 46.0835 72.1279 44.9789V12.7715Z" fill="white"/>
<rect x="83.4196" y="12.793" width="15.8076" height="4.02184" rx="1" fill="#F1DFFF"/>
<rect x="76.7133" y="36.9221" width="5.75848" height="5.75848" rx="2.87924" fill="#F1DFFF"/>
<rect x="100.174" y="36.9222" width="5.75848" height="5.75848" rx="2.87924" fill="#F1DFFF"/>
<rect x="76.927" y="20.8351" width="28.7924" height="11.517" rx="1" fill="#F1DFFF"/>
<path opacity="0.8" fill-rule="evenodd" clip-rule="evenodd" d="M36.9585 34.327L39.9875 27.6855H56.4652L59.4941 34.327H36.9585ZM58.018 26.2706L61.6923 34.327L62.5934 36.3029H62.6106V47.943H62.5907V49.9981C62.5907 50.5504 62.143 50.9981 61.5907 50.9981H58.1963C57.644 50.9981 57.1963 50.5504 57.1963 49.9981V47.943H39.2461V49.9981C39.2461 50.5504 38.7984 50.9981 38.2461 50.9981H34.8517C34.2994 50.9981 33.8517 50.5504 33.8517 49.9981V47.943H33.8369V36.3029H33.8592L34.7604 34.327L38.4346 26.2706C38.5972 25.9142 38.9528 25.6855 39.3445 25.6855H57.1082C57.4999 25.6855 57.8555 25.9142 58.018 26.2706ZM43.0744 42.1537C43.0744 43.2138 42.215 44.0732 41.1549 44.0732C40.0948 44.0732 39.2354 43.2138 39.2354 42.1537C39.2354 41.0936 40.0948 40.2342 41.1549 40.2342C42.215 40.2342 43.0744 41.0936 43.0744 42.1537ZM55.5549 44.0732C56.615 44.0732 57.4744 43.2138 57.4744 42.1537C57.4744 41.0936 56.615 40.2342 55.5549 40.2342C54.4948 40.2342 53.6354 41.0936 53.6354 42.1537C53.6354 43.2138 54.4948 44.0732 55.5549 44.0732Z" fill="white"/>
<path fill-rule="evenodd" clip-rule="evenodd" d="M9.78424 0.0175781C8.12739 0.0175781 6.78424 1.36072 6.78424 3.01758V13.0176C6.78424 14.6744 8.12739 16.0176 9.78424 16.0176H42.9248C44.5817 16.0176 45.9248 14.6744 45.9248 13.0176V3.01758C45.9248 1.36072 44.5816 0.0175781 42.9248 0.0175781H9.78424ZM16.5694 11.0176C18.1907 11.0176 19.505 9.67443 19.505 8.01758C19.505 6.36072 18.1907 5.01758 16.5694 5.01758C14.9482 5.01758 13.6339 6.36072 13.6339 8.01758C13.6339 9.67443 14.9482 11.0176 16.5694 11.0176ZM29.2902 8.01758C29.2902 9.67443 27.9759 11.0176 26.3546 11.0176C24.7334 11.0176 23.4191 9.67443 23.4191 8.01758C23.4191 6.36072 24.7334 5.01758 26.3546 5.01758C27.9759 5.01758 29.2902 6.36072 29.2902 8.01758ZM36.1398 11.0176C37.761 11.0176 39.0753 9.67443 39.0753 8.01758C39.0753 6.36072 37.761 5.01758 36.1398 5.01758C34.5185 5.01758 33.2042 6.36072 33.2042 8.01758C33.2042 9.67443 34.5185 11.0176 36.1398 11.0176Z" fill="white"/>
<path d="M0.382812 7.01758C0.382812 6.46529 0.830528 6.01758 1.38281 6.01758H3.31835V50.998H0.382812V7.01758Z" fill="white"/>
<rect x="10.6663" y="6.01758" width="3" height="9.30401" transform="rotate(90 10.6663 6.01758)" fill="white"/>
</svg>
