<svg width="16" height="17" viewBox="0 0 16 17" fill="none" xmlns="http://www.w3.org/2000/svg">
<g id="Frame 3498">
<g id="Group 3507">
<circle id="Ellipse 14" cx="4" cy="9.5" r="1" fill="#9D9D9D"/>
<circle id="Ellipse 15" cx="12" cy="9.5" r="1" fill="#9D9D9D"/>
<path id="Union" fill-rule="evenodd" clip-rule="evenodd" d="M3.3532 1.5H12.6283L14.4577 5.71567H1.5238L3.3532 1.5ZM13.5456 1.10192L15.5478 5.71567L15.9817 6.71567H16.0003V13.9673V14.4673H15.9997V15.5C15.9997 16.0523 15.552 16.5 14.9997 16.5H14.0027C13.4504 16.5 13.0027 16.0523 13.0027 15.5V14.4673H3.00603V15.5C3.00603 16.0523 2.55831 16.5 2.00603 16.5H1.00903C0.456748 16.5 0.0090332 16.0523 0.0090332 15.5V14.4673V14.4281V13.9673V6.71567H-0.000244141L0.433706 5.71567L2.43585 1.10192C2.59444 0.736462 2.95482 0.5 3.3532 0.5H12.6283C13.0266 0.5 13.387 0.736462 13.5456 1.10192ZM1.00903 6.71567V13.4673H15.0003V6.71567H14.8916H1.08985H1.00903Z" fill="#9D9D9D"/>
</g>
</g>
</svg>
