<svg width="21" height="27" viewBox="0 0 21 27" fill="none" xmlns="http://www.w3.org/2000/svg">
<g id="Group 3493">
<g id="Group 3491">
<path id="Vector" d="M10.8474 26.015C7.51408 22.6454 5.56963 20.6798 3.33179 17.7967C1.67554 15.2672 0.847412 12.9261 0.847412 10.7733C0.847412 7.54414 1.85262 4.97157 3.86304 3.0556C5.87345 1.13963 8.20158 0.181641 10.8474 0.181641C13.4932 0.181641 15.8214 1.13963 17.8318 3.0556C19.8422 4.97157 20.8474 7.54414 20.8474 10.7733C20.8474 12.9261 20.0193 15.2672 18.363 17.7967C16.403 20.399 13.903 22.6454 10.8474 26.015Z" fill="#FC8D2B"/>
</g>
<path id="+" d="M9.59491 14.915V11.1675H5.84741V8.66253H9.59491V4.91504H12.0999V8.66253H15.8474V11.1675H12.0999V14.915H9.59491Z" fill="white"/>
</g>
</svg>
