<svg width="28" height="29" viewBox="0 0 28 29" fill="none" xmlns="http://www.w3.org/2000/svg">
<g clip-path="url(#clip0_2162_16940)">
<path d="M22.947 1.6543H19.0759C19.0759 1.6543 19.0765 8.00211 19.0746 9.23639C19.0746 9.3167 18.9726 9.42653 18.9005 9.42653C18.145 9.42717 9.85501 9.42717 9.09927 9.42653C9.02718 9.42653 8.92536 9.3167 8.92514 9.23639C8.92325 8.00211 8.92388 1.6543 8.92388 1.6543H5.05305C5.05305 1.6543 5.05262 18.7332 5.05389 25.2499C5.05389 25.6091 5.05389 26.0562 5.36272 26.3581C5.64309 26.6322 6.01601 26.6541 6.47431 26.6541C7.72861 26.6541 20.2714 26.6541 21.5257 26.6541C21.984 26.6541 22.3569 26.6322 22.6373 26.3581C22.9461 26.0562 22.9461 25.6091 22.9461 25.2499C22.9472 18.7332 22.947 1.6543 22.947 1.6543ZM9.38217 24.0316H8.46833V11.8588H9.38217V24.0316ZM19.3576 24.0316H18.4439V11.9918H19.3576V24.0319V24.0316Z" fill="#FC8D2B"/>
</g>
<defs>
<clipPath id="clip0_2162_16940">
<rect width="17.8941" height="25" fill="white" transform="translate(5.05298 1.6543)"/>
</clipPath>
</defs>
</svg>
