<svg width="23" height="22" viewBox="0 0 23 22" fill="none" xmlns="http://www.w3.org/2000/svg">
<path d="M17.7732 0H5.92702C3.12311 0 0.850098 2.27302 0.850098 5.07692V16.9231C0.850098 19.727 3.12311 22 5.92702 22H17.7732C20.5771 22 22.8501 19.727 22.8501 16.9231V5.07692C22.8501 2.27302 20.5771 0 17.7732 0Z" fill="#B25CF9"/>
<path d="M9.27832 5V17" stroke="white" stroke-width="2" stroke-linecap="round" stroke-linejoin="round"/>
<path d="M9.27832 11.8571H12.7069C13.6162 11.8571 14.4883 11.4959 15.1313 10.8529C15.7742 10.21 16.1355 9.33788 16.1355 8.42857C16.1355 7.51926 15.7742 6.64719 15.1313 6.00421C14.4883 5.36122 13.6162 5 12.7069 5H9.27832" stroke="white" stroke-width="2" stroke-linecap="round" stroke-linejoin="round"/>
</svg>
