<svg width="146" height="62" viewBox="0 0 146 62" fill="none" xmlns="http://www.w3.org/2000/svg">
<g id="Group 3500">
<path id="Ellipse 17" opacity="0.8" d="M90.9609 60.9972C82.2861 60.9972 45.9038 60.9972 45.9038 60.9972C21.0061 60.9972 7.14626 60.9972 0.79834 60.9972C0.79834 60.9972 21.0061 43.6504 45.9038 43.6504C70.8015 43.6504 90.9609 60.9972 90.9609 60.9972Z" fill="white"/>
<path id="Union" opacity="0.8" fill-rule="evenodd" clip-rule="evenodd" d="M102.576 2.19126C101.656 -0.524689 97.8146 -0.524691 96.894 2.19126L91.1378 19.1737C90.4784 21.1191 91.9249 23.1368 93.979 23.1368H98.2766L98.2313 33.2607C97.4503 33.2164 96.6646 33.1937 95.8747 33.1937C91.1015 33.1937 86.4841 33.5658 82.1107 34.261V29.7267H83.6263C84.8443 29.7267 85.7107 28.5424 85.3418 27.3816L82.8321 19.4837C82.3004 17.8105 79.9329 17.8105 79.4012 19.4837L76.8915 27.3816C76.5226 28.5424 77.389 29.7267 78.607 29.7267H80.1226V34.6022C70.3067 36.4133 61.8346 39.8708 55.7574 44.3883C84.9685 44.2221 101.945 58.1331 105.285 61.1538H45.7495V61.1551V61.1559H146V61.1551C146 61.1551 126.386 36.7173 101.212 33.534L101.259 23.1368H105.491C107.546 23.1368 108.992 21.1191 108.333 19.1737L102.576 2.19126Z" fill="white"/>
</g>
</svg>
