<svg width="51" height="50" viewBox="0 0 51 50" fill="none" xmlns="http://www.w3.org/2000/svg">
<g id="Frame 3466341">
<g id="Group 4773">
<rect id="Rectangle 5631" x="0.5" width="50" height="50" rx="6" fill="#0089EB"/>
<path id="Vector" d="M25.4721 38.9275C21.9222 35.3686 19.7553 33.154 17.2871 30.0067C15.3791 27.1095 14.4915 24.5256 14.4915 22.2335C14.4915 18.6187 15.6172 15.8374 17.7994 13.7764C20.0373 11.663 22.5905 10.6294 25.5 10.6294C28.4095 10.6294 30.9627 11.663 33.2006 13.7764C35.3828 15.8374 36.5085 18.6187 36.5085 22.2335C36.5085 24.5272 35.6196 27.113 33.709 30.0126C32.5745 31.5015 31.2766 32.9014 29.7866 34.4441C29.4146 34.8293 29.0303 35.2237 28.6343 35.6301C27.6496 36.6406 26.5925 37.7255 25.4721 38.9275Z" fill="#0089EB" stroke="white" stroke-width="2"/>
<path id="Vector (Stroke)" fill-rule="evenodd" clip-rule="evenodd" d="M23.0525 17.1973C23.5828 17.1973 24.0126 17.6272 24.0126 18.1574V27.7593C24.0126 28.2896 23.5828 28.7195 23.0525 28.7195C22.5222 28.7195 22.0923 28.2896 22.0923 27.7593V18.1574C22.0923 17.6272 22.5222 17.1973 23.0525 17.1973Z" fill="white"/>
<path id="Vector_2" d="M23.0525 24.2189H26.1916C27.0242 24.2189 27.8226 23.8985 28.4113 23.3282C29 22.7578 29.3308 21.9842 29.3308 21.1776C29.3308 20.371 29 19.5974 28.4113 19.027C27.8226 18.4567 27.0242 18.1362 26.1916 18.1362H23.0525" stroke="white" stroke-width="2" stroke-linecap="round" stroke-linejoin="round"/>
</g>
</g>
</svg>
