<svg width="36" height="37" viewBox="0 0 36 37" fill="none" xmlns="http://www.w3.org/2000/svg">
<g id="Group 3504">
<path id="Line 15 (Stroke)" fill-rule="evenodd" clip-rule="evenodd" d="M22.4386 27.593C22.4547 27.5757 22.4916 27.5412 22.5691 27.5016C27.5162 24.9686 25.7783 17.504 20.2211 17.4166L5.12154 17.1792C3.741 17.1575 2.60425 18.259 2.58255 19.6396C2.56084 21.0201 3.6624 22.1569 5.04294 22.1786L20.1425 22.416C20.2294 22.4173 20.2778 22.432 20.2998 22.4404C20.3227 22.4491 20.3396 22.4597 20.355 22.4731C20.3897 22.5031 20.4398 22.5699 20.4644 22.6758C20.4891 22.7816 20.4736 22.8636 20.4558 22.9059C20.4478 22.9248 20.4374 22.9417 20.4207 22.9596C20.4047 22.9769 20.3677 23.0114 20.2903 23.051C15.3428 25.5842 17.0814 33.0495 22.6391 33.1361L30.2158 33.2541C31.5963 33.2756 32.7329 32.1739 32.7544 30.7933C32.7759 29.4128 31.6742 28.2762 30.2936 28.2547L22.717 28.1367C22.63 28.1353 22.5816 28.1207 22.5596 28.1123C22.5367 28.1035 22.5198 28.0929 22.5044 28.0796C22.4697 28.0495 22.4196 27.9828 22.3949 27.8769C22.3703 27.771 22.3858 27.689 22.4036 27.6467C22.4115 27.6279 22.422 27.611 22.4386 27.593Z" fill="white"/>
<g id="Group 3503">
<path id="Vector" d="M7.73936 19.679C5.31544 17.2287 3.90148 15.7994 2.27417 13.7029C1.06978 11.8634 0.46759 10.161 0.46759 8.59557C0.46759 6.24739 1.19855 4.37668 2.66048 2.98343C4.12241 1.59018 5.81537 0.893555 7.73936 0.893555C9.66335 0.893555 11.3563 1.59018 12.8182 2.98343C14.2802 4.37668 15.0111 6.24739 15.0111 8.59557C15.0111 10.161 14.4089 11.8634 13.2045 13.7029C11.7792 15.5952 9.96129 17.2287 7.73936 19.679Z" fill="#FE42A6"/>
<circle id="Ellipse 14" cx="7.73923" cy="8.16513" r="2.42392" fill="white"/>
</g>
</g>
</svg>
