<svg width="16" height="16" viewBox="0 0 16 16" fill="none" xmlns="http://www.w3.org/2000/svg">
<path fill-rule="evenodd" clip-rule="evenodd" d="M0 1C0 0.723858 0.21069 0.5 0.470588 0.5H15.5294C15.7893 0.5 16 0.723858 16 1C16 1.27614 15.7893 1.5 15.5294 1.5H0.470588C0.21069 1.5 0 1.27614 0 1ZM0 8C0 7.72386 0.21069 7.5 0.470588 7.5H15.5294C15.7893 7.5 16 7.72386 16 8C16 8.27614 15.7893 8.5 15.5294 8.5H0.470588C0.21069 8.5 0 8.27614 0 8ZM0 15C0 14.7239 0.21069 14.5 0.470588 14.5H15.5294C15.7893 14.5 16 14.7239 16 15C16 15.2761 15.7893 15.5 15.5294 15.5H0.470588C0.21069 15.5 0 15.2761 0 15Z" fill="white"/>
</svg>
