<svg width="24" height="25" viewBox="0 0 24 25" fill="none" xmlns="http://www.w3.org/2000/svg">
<path fill-rule="evenodd" clip-rule="evenodd" d="M21.707 20.793L20.293 22.207L17.2021 19.1162C14.552 20.5937 11.5777 20.895 8.78125 19.9863C5.74277 18.9989 3.00245 16.6152 1.11133 12.959L0.874023 12.5L1.11133 12.041C2.19784 9.94037 3.56505 8.26114 5.10938 7.02344L2.29297 4.20703L3.70703 2.79297L21.707 20.793ZM6.5332 8.44727C5.27132 9.41695 4.10573 10.7606 3.13672 12.498C4.80774 15.496 7.06015 17.3238 9.39941 18.084C11.4733 18.7579 13.675 18.6122 15.7168 17.6309L14.0312 15.9453C13.4358 16.2969 12.7413 16.5 12 16.5C9.79086 16.5 8 14.7091 8 12.5C8 11.7585 8.20197 11.0633 8.55371 10.4678L6.5332 8.44727ZM10.0693 11.9834C10.0254 12.1483 10 12.321 10 12.5C10 13.6046 10.8954 14.5 12 14.5C12.1787 14.5 12.351 14.4735 12.5156 14.4297L10.0693 11.9834Z" fill="#121212"/>
<path d="M11.0479 4.54395C15.5995 4.11834 20.1439 6.73435 22.8887 12.041L23.126 12.5L22.8887 12.959C22.3509 13.9987 21.7444 14.9356 21.082 15.7666L20.459 16.5488L18.8945 15.3018L19.5176 14.5205C19.9975 13.9185 20.4487 13.2444 20.8643 12.499C18.3266 7.94586 14.4509 6.08747 10.8779 6.57617L9.8877 6.71191L9.61621 4.73047L10.6074 4.59473L11.0479 4.54395Z" fill="#121212"/>
</svg>
