<svg width="40" height="40" viewBox="0 0 40 40" fill="none" xmlns="http://www.w3.org/2000/svg">
<g id="Group 3512">
<g id="Group 3511">
<path id="Rectangle 5607" d="M1.25 16.3692C1.25 15.4354 1.89618 14.6259 2.80676 14.4189L11.25 12.5V35.2273L3.69324 36.9447C2.44172 37.2292 1.25 36.2779 1.25 34.9945V16.3692Z" fill="white"/>
<path id="Rectangle 5608" d="M13.75 12.5L23.75 14.7727V37.5L13.75 35.2273V12.5Z" fill="white"/>
<path id="Rectangle 5609" d="M26.25 14.7727L33.8068 13.0553C35.0583 12.7708 36.25 13.7221 36.25 15.0055V33.6308C36.25 34.5646 35.6038 35.3741 34.6932 35.5811L26.25 37.5V14.7727Z" fill="white"/>
</g>
<g id="Group 3509">
<path id="Vector" d="M31.25 21.25C28.75 18.8043 27.2917 17.3777 25.6133 15.2852C24.3711 13.4492 23.75 11.75 23.75 10.1875C23.75 7.84375 24.5039 5.97656 26.0117 4.58594C27.5195 3.19531 29.2656 2.5 31.25 2.5C33.2344 2.5 34.9805 3.19531 36.4883 4.58594C37.9961 5.97656 38.75 7.84375 38.75 10.1875C38.75 11.75 38.1289 13.4492 36.8867 15.2852C35.4167 17.1739 33.5417 18.8043 31.25 21.25Z" fill="#FC8D2B"/>
<ellipse id="Ellipse 14" cx="31.2499" cy="9.75822" rx="2.5" ry="2.41935" fill="white"/>
</g>
</g>
</svg>
