<svg width="50" height="50" viewBox="0 0 50 50" fill="none" xmlns="http://www.w3.org/2000/svg">
<g id="&#235;&#167;&#164;&#236;&#154;&#176;&#235;&#134;&#146;&#236;&#157;&#140;" clip-path="url(#clip0_941_6762)">
<path id="Vector" d="M25.0001 0C11.2149 0 0 11.2156 0 24.9999C0 38.7862 11.2149 50 25.0001 50C38.7854 50 50 38.7862 50 24.9999C50 11.2156 38.7854 0 25.0001 0ZM8.18995 17.5524C8.18995 16.8757 8.73813 16.3265 9.41497 16.3265C12.145 16.3265 14.6028 14.5054 15.3921 11.894C15.5888 11.2475 16.27 10.8826 16.9192 11.0773C17.5666 11.2724 17.9325 11.9579 17.7359 12.6044C16.6189 16.2964 13.2752 18.7766 9.41497 18.7766C8.73813 18.7766 8.18995 18.2292 8.18995 17.5524ZM16.5941 16.7518C18.0698 16.7518 19.2664 17.9476 19.2664 19.425C19.2664 20.9007 18.0698 22.0966 16.5941 22.0966C15.1184 22.0966 13.9225 20.9007 13.9225 19.425C13.9225 17.9476 15.1184 16.7518 16.5941 16.7518ZM34.5221 39.6789C33.8455 39.6789 33.298 39.1316 33.298 38.4547C33.298 33.879 29.5752 30.1569 25.0001 30.1569C20.4251 30.1569 16.7032 33.879 16.7032 38.4547C16.7032 39.1316 16.1548 39.6789 15.4782 39.6789C14.8022 39.6789 14.254 39.1316 14.254 38.4547C14.254 32.5289 19.0752 27.7069 25.0001 27.7069C30.925 27.7069 35.7463 32.5289 35.7463 38.4547C35.7463 39.1316 35.199 39.6789 34.5221 39.6789ZM33.4061 22.0965C31.9304 22.0965 30.7346 20.9007 30.7346 19.4249C30.7346 17.9476 31.9304 16.7518 33.4061 16.7518C34.8819 16.7518 36.0784 17.9476 36.0784 19.4249C36.0784 20.9007 34.8819 22.0965 33.4061 22.0965ZM40.5861 18.7766C36.7261 18.7766 33.3822 16.2964 32.2643 12.6044C32.0686 11.9579 32.4343 11.274 33.081 11.0773C33.7303 10.8792 34.4124 11.2475 34.6081 11.894C35.3991 14.5036 37.8571 16.3265 40.5861 16.3265C41.2628 16.3265 41.8103 16.8757 41.8103 17.5524C41.8103 18.2292 41.2628 18.7766 40.5861 18.7766Z" fill="#FF6219"/>
</g>
<defs>
<clipPath id="clip0_941_6762">
<rect width="50" height="50" fill="white"/>
</clipPath>
</defs>
</svg>
