<svg width="50" height="50" viewBox="0 0 50 50" fill="none" xmlns="http://www.w3.org/2000/svg">
<g id="&#236;&#156;&#132;&#237;&#151;&#152;" clip-path="url(#clip0_941_6765)">
<g id="Group">
<path id="Vector" d="M24.9996 0C11.2141 0 0 11.2137 0 24.9999C0 38.7843 11.2141 50 24.9996 50C38.7843 50 50 38.7843 50 24.9999C50 11.2137 38.7843 0 24.9996 0ZM12.2256 23.4055C11.9864 23.6447 11.6729 23.7651 11.3601 23.7651C11.0467 23.7651 10.733 23.6446 10.4939 23.4055C10.0156 22.9272 10.0156 22.1531 10.4939 21.6747L13.7421 18.4257L10.4939 15.1783C10.0156 14.7002 10.0156 13.9242 10.4939 13.446C10.9724 12.9676 11.7473 12.9676 12.2256 13.446L15.4729 16.695L18.7213 13.446C19.1995 12.9676 19.9745 12.9676 20.4527 13.446C20.9312 13.9242 20.9312 14.7002 20.4527 15.1783L17.2047 18.4257L20.4527 21.6747C20.9312 22.1531 20.9312 22.9272 20.4527 23.4055C20.2137 23.6447 19.9002 23.7651 19.5866 23.7651C19.2738 23.7651 18.9603 23.6446 18.7213 23.4055L15.473 20.1584L12.2256 23.4055ZM24.9996 42.9847C20.871 42.9847 17.5119 39.6257 17.5119 35.4981C17.5119 31.3704 20.871 28.0116 24.9996 28.0116C29.1283 28.0116 32.4871 31.3703 32.4871 35.4981C32.4871 39.6258 29.1283 42.9847 24.9996 42.9847ZM39.5053 21.6747C39.9837 22.1531 39.9837 22.9272 39.5053 23.4055C39.266 23.6447 38.9534 23.7651 38.6398 23.7651C38.3263 23.7651 38.0136 23.6447 37.7745 23.4055L34.5255 20.1584L31.2771 23.4055C31.038 23.6447 30.7252 23.7651 30.4118 23.7651C30.0981 23.7651 29.7846 23.6447 29.5454 23.4055C29.0672 22.9272 29.0672 22.1531 29.5454 21.6747L32.7937 18.4257L29.5454 15.1784C29.0672 14.7003 29.0672 13.9242 29.5454 13.446C30.0238 12.9676 30.799 12.9676 31.2771 13.446L34.5255 16.695L37.7745 13.446C38.2529 12.9676 39.027 12.9676 39.5053 13.446C39.9837 13.9242 39.9837 14.7003 39.5053 15.1784L36.2572 18.4257L39.5053 21.6747Z" fill="#FF4A5C"/>
<path id="Vector_2" d="M24.9996 30.46C22.2217 30.46 19.9611 32.7204 19.9611 35.4981C19.9611 38.276 22.2217 40.5365 24.9996 40.5365C27.7783 40.5365 30.0389 38.276 30.0389 35.4981C30.0389 32.7204 27.7783 30.46 24.9996 30.46Z" fill="#FF4A5C"/>
</g>
</g>
<defs>
<clipPath id="clip0_941_6765">
<rect width="50" height="50" fill="white"/>
</clipPath>
</defs>
</svg>
