<?xml version="1.0" encoding="utf-8"?>
<!-- Generator: Adobe Illustrator 24.3.0, SVG Export Plug-In . SVG Version: 6.00 Build 0)  -->
<svg version="1.1" id="레이어_1" xmlns="http://www.w3.org/2000/svg" xmlns:xlink="http://www.w3.org/1999/xlink" x="0px"
	 y="0px" viewBox="0 0 50 50" style="enable-background:new 0 0 50 50;" xml:space="preserve">
<style type="text/css">
	.st0{fill:#888888;}
</style>
<path class="st0" d="M24.99923,0C11.21497,0,0,11.21397,0,25c0,13.78437,11.21497,25,24.99923,25C38.78448,50,50,38.78437,50,25
	C50,11.21397,38.78448,0,24.99923,0z M15.47453,19.6464c-1.4758,0-2.67226-1.19579-2.67226-2.67138
	c0-1.4758,1.19646-2.6716,2.67226-2.6716c1.47569,0,2.6716,1.19579,2.6716,2.6716
	C18.14613,18.45061,16.95022,19.6464,15.47453,19.6464z M34.73562,19.6464c-1.47569,0-2.67248-1.19579-2.67248-2.67138
	c0-1.4758,1.19679-2.6716,2.67248-2.6716c1.47581,0,2.67237,1.19579,2.67237,2.6716
	C37.40799,18.45061,36.21143,19.6464,34.73562,19.6464z"/>
</svg>
