<svg width="50" height="50" viewBox="0 0 50 50" fill="none" xmlns="http://www.w3.org/2000/svg">
<g id="&#235;&#130;&#174;&#236;&#157;&#140;" clip-path="url(#clip0_941_6747)">
<path id="Vector" d="M24.9994 0C11.214 0 0 11.2155 0 25.0002C0 38.7861 11.214 50 24.9994 50C38.7851 50 50 38.7861 50 25.0002C50 11.2155 38.7851 0 24.9994 0ZM34.736 13.3716C38.0366 13.3716 40.7203 16.0555 40.7203 19.3558C40.7203 20.0326 40.173 20.58 39.4962 20.58C38.8195 20.58 38.2721 20.0326 38.2721 19.3558C38.2721 17.4054 36.6848 15.8198 34.736 15.8198C32.7854 15.8198 31.1981 17.4054 31.1981 19.3558C31.1981 20.0326 30.6509 20.58 29.974 20.58C29.2974 20.58 28.7499 20.0326 28.7499 19.3558C28.7499 16.0555 31.4357 13.3716 34.736 13.3716ZM15.4739 13.3716C18.7742 13.3716 21.46 16.0555 21.46 19.3558C21.46 20.0326 20.9125 20.58 20.2359 20.58C19.559 20.58 19.0107 20.0326 19.0107 19.3558C19.0107 17.4054 17.4243 15.8198 15.4739 15.8198C13.5241 15.8198 11.9376 17.4054 11.9376 19.3558C11.9376 20.0326 11.3904 20.58 10.7135 20.58C10.0359 20.58 9.4884 20.0326 9.4884 19.3558C9.48841 16.0555 12.1733 13.3716 15.4739 13.3716ZM41.1606 27.4484C41.1606 36.361 33.9103 43.6118 24.9994 43.6118C16.0884 43.6118 8.8382 36.361 8.8382 27.4484V26.2258H41.1606V27.4484Z" fill="#29A7FF"/>
</g>
<defs>
<clipPath id="clip0_941_6747">
<rect width="50" height="50" fill="white"/>
</clipPath>
</defs>
</svg>
