<svg width="50" height="50" viewBox="0 0 50 50" fill="none" xmlns="http://www.w3.org/2000/svg">
<g id="&#235;&#179;&#180;&#237;&#134;&#181;" clip-path="url(#clip0_941_6750)">
<path id="Vector" d="M25 0C11.2156 0 0 11.2155 0 25.0002C0 38.7861 11.2156 50 25 50C38.7853 50 50 38.7861 50 25.0002C50 11.2155 38.7853 0 25 0ZM34.7356 14.3034C36.2111 14.3034 37.4078 15.5009 37.4078 16.9749C37.4078 18.4524 36.2111 19.6464 34.7356 19.6464C33.2598 19.6464 32.0631 18.4524 32.0631 16.9749C32.0631 15.5009 33.2598 14.3034 34.7356 14.3034ZM15.4745 14.3034C16.9501 14.3034 18.1468 15.5009 18.1468 16.9749C18.1468 18.4524 16.9501 19.6464 15.4745 19.6464C13.9988 19.6464 12.802 18.4524 12.802 16.9749C12.802 15.5009 13.9987 14.3034 15.4745 14.3034ZM25 41.1618C16.0892 41.1618 8.83908 33.911 8.83908 25.0002C8.83908 24.3232 9.38738 23.7759 10.0632 23.7759C10.7398 23.7759 11.2883 24.3232 11.2883 25.0002C11.2883 32.5609 17.4391 38.7119 25 38.7119C32.5609 38.7119 38.7127 32.5609 38.7127 25.0002C38.7127 24.3232 39.2609 23.7759 39.9368 23.7759C40.6126 23.7759 41.1609 24.3232 41.1609 25.0002C41.1609 33.911 33.9108 41.1618 25 41.1618Z" fill="#53DD6E"/>
</g>
<defs>
<clipPath id="clip0_941_6750">
<rect width="50" height="50" fill="white"/>
</clipPath>
</defs>
</svg>
