<svg width="62" height="77" viewBox="0 0 62 77" fill="none" xmlns="http://www.w3.org/2000/svg">
<g id="logo" clip-path="url(#clip0_153_1295)">
<path id="Vector" d="M26.8069 5.58963C27.2181 7.78405 29.3236 9.22696 31.5089 8.81412C33.6923 8.40129 35.1292 6.28703 34.7161 4.09662C34.307 1.90019 32.2014 0.457283 30.0161 0.872119C27.8327 1.28295 26.3958 3.3952 26.8069 5.58963Z" fill="white"/>
<path id="Vector_2" d="M51.0533 12.2851C51.4624 14.4796 53.5679 15.9225 55.7553 15.5096C57.9366 15.0968 59.3736 12.9825 58.9625 10.7901C58.5533 8.5957 56.4458 7.1528 54.2625 7.56563C52.0791 7.97846 50.6442 10.0927 51.0553 12.2851H51.0533Z" fill="white"/>
<path id="Vector_3" d="M1.67842 18.167C2.08955 20.3594 4.19706 21.8043 6.38041 21.3915C8.56576 20.9766 10.0047 18.8644 9.58958 16.67C9.17846 14.4775 7.07493 13.0326 4.88959 13.4475C2.70424 13.8603 1.27129 15.9725 1.67643 18.167H1.67842Z" fill="white"/>
<path id="Vector_4" d="M60.5451 24.1711C56.9947 17.4395 48.1116 17.9666 43.2818 20.6059C33.4288 7.16481 16.5488 10.8562 17.0916 31.3736C18.768 33.56 20.4644 36.0069 22.1429 38.4298C18.5066 14.4495 33.9936 13.6799 41.2721 26.9527C41.2721 26.9527 49.5884 22.1029 52.2488 27.9547C57.0066 38.3997 42.4436 54.7427 34.9077 54.0673C32.1136 53.8168 29.1719 50.8809 26.1643 47.0111V47.0151C26.1284 46.973 26.0984 46.9289 26.0705 46.8889C25.8629 46.6263 25.6574 46.3538 25.4558 46.0852C25.3899 45.9971 25.3221 45.9109 25.2562 45.8207C25.0347 45.5241 24.8092 45.2175 24.5857 44.9109C24.5398 44.8447 24.4879 44.7806 24.442 44.7145C24.1925 44.3638 23.939 44.0111 23.6796 43.6523C23.6616 43.6263 23.6437 43.6002 23.6277 43.5742C23.3323 43.1533 23.031 42.7285 22.7356 42.2996C20.8416 39.5741 18.9357 36.7063 17.0317 34.077C16.9319 33.9408 16.8322 33.8025 16.7324 33.6662C16.5468 33.4117 16.3612 33.1592 16.1736 32.9087C16.0917 32.7965 16.0099 32.6862 15.9281 32.576C15.6986 32.2774 15.4711 31.9828 15.2455 31.6922C15.2016 31.6381 15.1597 31.576 15.1158 31.5239C14.567 30.8205 14.0162 30.1511 13.4673 29.5179C13.4174 29.4637 13.3675 29.4076 13.3196 29.3515C13.1021 29.103 12.8826 28.8605 12.661 28.6261C10.2063 25.9847 7.77943 24.2693 5.43443 24.3534C-0.101786 24.5599 -0.910065 32.2714 0.798298 40.2535C4.55231 57.7748 20.9554 65.2759 22.8074 49.7566C26.2042 54.39 30.4691 58.893 34.299 59.1957C49.0556 60.368 67.3227 37.027 60.5451 24.1711ZM4.58224 39.1613C2.52263 30.4678 4.97141 19.2311 17.8121 41.989C18.0336 42.3798 18.2791 42.8106 18.5485 43.2676C20.7358 64.2037 7.17672 50.1194 4.58224 39.1613Z" fill="white"/>
<path id="Vector_5" d="M36.5841 73.1758H25.3141V74.8011H36.5841V73.1758Z" fill="white"/>
<path id="Vector_6" d="M11.5175 73.1758H0.249466V74.8011H11.5175V73.1758Z" fill="white"/>
<path id="Vector_7" d="M5.88348 66.286L9.82109 71.4003L11.2201 70.3401L5.88348 63.4843L0.542847 70.3401L1.94386 71.4003L5.88348 66.286Z" fill="white"/>
<path id="Vector_8" d="M35.696 71.5145V69.8892H27.9405V68.4663H35.696V66.8391H27.9405V65.6246H35.696V63.9973H26.2042V71.5145H35.696Z" fill="white"/>
<path id="Vector_9" d="M12.6511 64.1456V74.0376H19.3827V64.1456H12.6511ZM17.6444 65.7729V72.4103H14.3894V65.7729H17.6444Z" fill="white"/>
<path id="Vector_10" d="M24.8451 66.8711H22.8833V63.4081H21.145V75.6368H22.8833V68.4984H24.8451V66.8711Z" fill="white"/>
<path id="Vector_11" d="M61.8024 66.2559V64.6286H59.8386V63.4081H58.1003V69.9694H59.8386V68.8451H61.8024V67.2178H59.8386V66.2559H61.8024Z" fill="white"/>
<path id="Vector_12" d="M56.4558 66.6968C56.4558 64.9252 54.9769 63.4903 53.1628 63.4903C51.3387 63.4903 49.8638 64.9252 49.8638 66.6968C49.8638 68.4684 51.3387 69.9032 53.1628 69.9032C54.9769 69.9032 56.4558 68.4664 56.4558 66.6968ZM51.6021 66.6968C51.6021 65.817 52.3006 65.1056 53.1608 65.1056C54.021 65.1056 54.7175 65.817 54.7175 66.6968C54.7175 67.5766 54.019 68.29 53.1608 68.29C52.3026 68.29 51.6021 67.5766 51.6021 66.6968Z" fill="white"/>
<path id="Vector_13" d="M56.2921 69.5405C54.4321 69.5405 52.9293 71.0055 52.9293 72.8111C52.9293 74.6168 54.4341 76.0837 56.2921 76.0837C58.1502 76.0837 59.653 74.6168 59.653 72.8111C59.653 71.0055 58.1482 69.5405 56.2921 69.5405ZM56.2921 74.4364C55.3961 74.4364 54.6756 73.7089 54.6756 72.8111C54.6756 71.9133 55.3961 71.1858 56.2921 71.1858C57.1882 71.1858 57.9087 71.9133 57.9087 72.8111C57.9087 73.7089 57.1862 74.4364 56.2921 74.4364Z" fill="white"/>
<path id="Vector_14" d="M47.5807 65.3721V63.4081H45.8424V71.6708H47.5807V66.9994H49.5445V65.3721H47.5807Z" fill="white"/>
<path id="Vector_15" d="M42.0884 70.8511H40.3481V75.268H47.7903V73.6387H42.0884V70.8511Z" fill="white"/>
<path id="Vector_16" d="M44.2518 66.6968C44.2518 64.9252 42.7769 63.4903 40.9588 63.4903C39.1407 63.4903 37.6618 64.9252 37.6618 66.6968C37.6618 68.4684 39.1347 69.9032 40.9588 69.9032C42.7829 69.9032 44.2518 68.4664 44.2518 66.6968ZM39.3981 66.6968C39.3981 65.817 40.0966 65.1056 40.9568 65.1056C41.813 65.1056 42.5095 65.817 42.5095 66.6968C42.5095 67.5766 41.811 68.29 40.9568 68.29C40.0946 68.29 39.3981 67.5766 39.3981 66.6968Z" fill="white"/>
</g>
<defs>
<clipPath id="clip0_153_1295">
<rect width="62" height="75.2857" fill="white" transform="translate(0 0.799988)"/>
</clipPath>
</defs>
</svg>
